<?xml version="1.0" encoding="UTF-8" standalone="no"?>
<!-- Created with Inkscape (http://www.inkscape.org/) -->

<svg
   xmlns:osb="http://www.openswatchbook.org/uri/2009/osb"
   xmlns:dc="http://purl.org/dc/elements/1.1/"
   xmlns:cc="http://creativecommons.org/ns#"
   xmlns:rdf="http://www.w3.org/1999/02/22-rdf-syntax-ns#"
   xmlns:svg="http://www.w3.org/2000/svg"
   xmlns="http://www.w3.org/2000/svg"
   xmlns:xlink="http://www.w3.org/1999/xlink"
   xmlns:sodipodi="http://sodipodi.sourceforge.net/DTD/sodipodi-0.dtd"
   xmlns:inkscape="http://www.inkscape.org/namespaces/inkscape"
   width="64.288681mm"
   height="156.32704mm"
   viewBox="0 0 227.79454 553.91471"
   id="svg4287"
   version="1.1"
   inkscape:version="0.91 r"
   sodipodi:docname="dub.svg"
   inkscape:export-filename="/home/wil/Downloads/dub.png"
   inkscape:export-xdpi="52.419998"
   inkscape:export-ydpi="52.419998">
  <defs
     id="defs4289">
    <linearGradient
       id="linearGradient4977"
       osb:paint="solid">
      <stop
         style="stop-color:#ffffff;stop-opacity:1;"
         offset="0"
         id="stop4979" />
    </linearGradient>
    <linearGradient
       id="linearGradient4969"
       osb:paint="solid">
      <stop
         style="stop-color:#ffffff;stop-opacity:1;"
         offset="0"
         id="stop4971" />
    </linearGradient>
    <linearGradient
       id="linearGradient4961"
       osb:paint="solid">
      <stop
         style="stop-color:#ffffff;stop-opacity:1;"
         offset="0"
         id="stop4963" />
    </linearGradient>
    <linearGradient
       id="linearGradient4953"
       osb:paint="solid">
      <stop
         style="stop-color:#ffffff;stop-opacity:1;"
         offset="0"
         id="stop4955" />
    </linearGradient>
    <linearGradient
       inkscape:collect="always"
       xlink:href="#linearGradient4953"
       id="linearGradient4957"
       x1="305.07845"
       y1="160.72405"
       x2="388.63022"
       y2="160.72405"
       gradientUnits="userSpaceOnUse" />
    <linearGradient
       inkscape:collect="always"
       xlink:href="#linearGradient4961"
       id="linearGradient4965"
       x1="229.75758"
       y1="285.50315"
       x2="376.32149"
       y2="285.50315"
       gradientUnits="userSpaceOnUse" />
    <linearGradient
       inkscape:collect="always"
       xlink:href="#linearGradient4969"
       id="linearGradient4973"
       x1="213.59037"
       y1="607.30231"
       x2="260.45421"
       y2="607.30231"
       gradientUnits="userSpaceOnUse" />
    <linearGradient
       inkscape:collect="always"
       xlink:href="#linearGradient4977"
       id="linearGradient4981"
       x1="289.02564"
       y1="609.33419"
       x2="330.1843"
       y2="609.33419"
       gradientUnits="userSpaceOnUse" />
  </defs>
  <sodipodi:namedview
     id="base"
     pagecolor="#ffffff"
     bordercolor="#666666"
     borderopacity="1.0"
     inkscape:pageopacity="0.0"
     inkscape:pageshadow="2"
     inkscape:zoom="1.5528067"
     inkscape:cx="117.21906"
     inkscape:cy="274.74282"
     inkscape:document-units="px"
     inkscape:current-layer="g4983"
     showgrid="false"
     fit-margin-top="0"
     fit-margin-left="0"
     fit-margin-right="0"
     fit-margin-bottom="0"
     inkscape:window-width="1920"
     inkscape:window-height="1023"
     inkscape:window-x="0"
     inkscape:window-y="0"
     inkscape:window-maximized="1" />
  <metadata
     id="metadata4292">
    <rdf:RDF>
      <cc:Work
         rdf:about="">
        <dc:format>image/svg+xml</dc:format>
        <dc:type
           rdf:resource="http://purl.org/dc/dcmitype/StillImage" />
        <dc:title></dc:title>
      </cc:Work>
    </rdf:RDF>
  </metadata>
  <g
     inkscape:label="Layer 1"
     inkscape:groupmode="layer"
     id="layer1"
     transform="translate(-161.36089,-102.02761)">
    <g
       id="g4983">
      <path
         inkscape:connector-curvature="0"
         id="path4975"
         d="m 289.51593,597.98278 8.37193,27.69179 31.55576,-16.74387 -11.59191,-16.09988 -24.47181,5.79596 -1.93199,1.93198 1.28799,13.5239 z"
         style="fill:url(#linearGradient4981);fill-rule:evenodd;stroke:#000000;stroke-width:1px;stroke-linecap:butt;stroke-linejoin:miter;stroke-opacity:1;fill-opacity:1" />
      <path
         inkscape:connector-curvature="0"
         id="path4967"
         d="m 219.96445,587.67886 -5.79596,34.77574 38.63971,5.15196 7.08395,-27.0478 -15.45588,-13.5239 -22.53984,3.21998 z"
         style="fill:url(#linearGradient4973);fill-rule:evenodd;stroke:#000000;stroke-width:1px;stroke-linecap:butt;stroke-linejoin:miter;stroke-opacity:1;fill-opacity:1" />
      <path
         sodipodi:nodetypes="cccccccscccc"
         inkscape:connector-curvature="0"
         id="path4959"
         d="m 245.08026,210.2977 10.94792,-14.81189 37.35172,-4.50797 47.01164,23.18383 32.84376,19.31985 2.57598,63.11153 -27.0478,20.60784 c 0,0 61.82353,48.29964 -6.43995,56.67158 -68.26349,8.37193 -68.90748,5.79595 -68.90748,5.79595 l -34.13175,-56.67157 -9.01593,-68.26349 z"
         style="fill:url(#linearGradient4965);fill-rule:evenodd;stroke:#000000;stroke-width:1px;stroke-linecap:butt;stroke-linejoin:miter;stroke-opacity:1;fill-opacity:1" />
      <path
         inkscape:connector-curvature="0"
         id="path4951"
         d="m 305.6158,163.93005 13.5239,-28.97979 28.97978,-19.31985 39.9277,17.38787 c 0,0 -9.01593,37.99571 -8.37193,40.57169 0.64399,2.57598 -6.43995,13.5239 -6.43995,13.5239 l -13.5239,0.644 -14.17706,9.00591 -8.36277,11.60193 -16.09988,-11.59191 -9.65993,-15.45588 z"
         style="fill:url(#linearGradient4957);fill-opacity:1;fill-rule:evenodd;stroke:#000000;stroke-width:1px;stroke-linecap:butt;stroke-linejoin:miter;stroke-opacity:1"
         sodipodi:nodetypes="ccccsccccccc" />
      <g
         transform="matrix(0.61740404,0,0,0.61740404,95.962664,41.046976)"
         id="g4909">
        <path
           style="fill:#000000"
           d="m 477.98391,145.62804 c -0.74749,-3.17883 -2.02932,-6.96647 -2.67049,-7.18103 -0.47889,-0.16028 -0.74754,-0.65627 -0.59803,-1.10306 0.42984,-1.28456 -2.13515,-4.80281 -3.53007,-4.84179 -0.88061,-0.0246 -0.7848,-0.17386 0.31708,-0.49322 0.72176,-0.20924 1.17223,-0.54903 1.32845,-0.90203 l -0.39657,-0.95445 c -0.12276,-0.0756 -0.27053,-0.14394 -0.44393,-0.20192 -0.42858,-0.14341 -0.71178,-0.74894 -0.63029,-1.34533 0.0815,-0.59641 -0.67359,-2.11268 -1.67693,-3.36952 -1.00333,-1.25682 -2.17097,-3.45594 -2.59507,-4.88657 -0.88333,-2.97975 -2.53973,-5.59664 -4.24141,-7.04675 l -2.05782,-0.87521 -0.89229,-0.28786 c -0.0432,0.008 -0.0886,0.006 -0.13125,0.0155 -0.34531,0.0811 -0.69863,-0.072 -0.93997,-0.36112 l -38.76179,-12.511001 -23.87898,5.607301 -22.45902,9.00663 -19.93473,27.69952 -10.73841,11.23066 -3.28559,19.12459 -1.38573,6.28824 0.34574,1.40744 -2.09001,9.48374 c -0.78387,3.55695 -1.52326,6.57221 -1.99148,8.21473 l 7.90984,20.92057 -9.92009,16.48399 c 0.47231,0.30082 1.00697,1.08338 1.30873,1.98139 1.35673,4.03745 2.14011,5.13048 3.32032,4.63297 0.91336,-0.38502 1.58614,0.43493 3.21182,3.91119 1.13088,2.41849 2.24952,5.3654 2.48564,6.54873 0.5458,2.73521 3.28802,7.86187 4.10281,7.67053 0.34049,-0.0799 0.77645,0.52898 0.97008,1.35354 0.26863,1.144 0.61937,1.31187 1.4799,0.70712 0.62026,-0.43592 1.53718,-1.08355 2.0378,-1.43813 0.53534,-0.37913 0.79292,-0.29307 0.62502,0.20866 -0.16285,0.48666 0.90101,0.10632 2.4759,-0.88641 1.51857,-0.95722 2.88475,-2.1111 3.03594,-2.56287 0.15121,-0.45173 0.56462,-0.86445 0.91897,-0.91733 1.37255,-0.20482 2.94162,-1.5092 2.43123,-2.02085 -0.29517,-0.29586 -0.9342,-0.26699 -1.42089,0.0639 -1.34157,0.91202 -2.19748,-0.42002 -1.60113,-2.49224 0.29196,-1.01445 0.5626,-1.97078 0.60249,-2.12518 0.0404,-0.1543 1.12685,0.31752 2.41432,1.04958 2.9732,1.69056 6.0181,2.51312 6.48935,1.75261 0.53426,-0.86209 -2.21117,-3.73441 -3.32028,-3.47397 -0.52091,0.12231 -1.05679,-0.24416 -1.19057,-0.81377 -0.13377,-0.56964 -1.32061,-2.02698 -2.63752,-3.23894 -1.31692,-1.21197 -2.5656,-2.93263 -2.77485,-3.82378 -0.20926,-0.89114 -0.73583,-1.6527 -1.17049,-1.69241 -0.43468,-0.0397 -2.09077,-2.63596 -3.68077,-5.76835 l -2.89152,-5.69442 0.51491,-6.60461 c 0.54694,-7.02114 0.004,-8.90807 -2.40035,-8.34364 -0.82069,0.19272 -2.22277,0.15502 -3.11656,-0.0835 -1.4341,-0.38228 -1.52978,-0.27379 -0.81356,0.92656 0.4464,0.74816 0.64631,1.93359 0.44503,2.63467 -0.33102,1.15317 -0.47768,1.18927 -1.54564,0.38173 -0.97101,-0.73423 -1.06172,-1.22048 -0.50915,-2.7428 0.48538,-1.33732 0.2431,-3.39667 -0.87255,-7.42255 -1.28926,-4.6524 -1.38755,-5.95226 -0.59892,-7.88097 0.51941,-1.27036 0.78924,-2.57698 0.60043,-2.90359 -0.1889,-0.32666 0.59335,-2.11368 1.73868,-3.97097 1.66809,-2.70497 2.25885,-3.2051 2.96595,-2.51125 0.71603,0.7026 0.82801,0.62334 0.59166,-0.42282 -0.1789,-0.79193 0.071,-1.16794 0.64861,-0.97465 0.56147,0.18786 0.67564,0.0485 0.28252,-0.34554 -0.73364,-0.73539 0.30777,-2.0665 1.94083,-2.4805 0.58458,-0.14818 0.98888,-1.08655 0.89832,-2.08438 -0.0906,-0.99783 0.41655,-2.63723 1.12703,-3.64316 1.42512,-2.01768 3.03289,-7.90132 2.62912,-9.62086 -0.16867,-0.71827 0.41591,-1.25739 1.69701,-1.56568 1.13978,-0.27436 1.55342,-0.61058 0.99191,-0.80658 -0.67365,-0.23509 -0.4662,-1.52012 0.69128,-4.27987 1.6502,-3.93462 3.26009,-5.12581 5.25608,-3.88895 0.58575,0.36297 0.98011,0.33705 0.88728,-0.0582 -0.0919,-0.39136 -0.63476,-1.0023 -1.2066,-1.35665 -0.57162,-0.35437 -0.91082,-0.85125 -0.75343,-1.10527 0.35394,-0.57123 5.16063,2.20919 7.24662,4.19158 1.10499,1.05048 1.95713,1.25509 3.02093,0.7253 1.3365,-0.66559 1.3886,-0.61442 0.53333,0.51761 -0.86387,1.14339 -0.71462,1.36582 1.67763,2.50829 2.31963,1.10777 2.51775,1.105 1.70009,-0.0239 -0.96794,-1.33625 -1.60896,-3.67541 -1.19142,-4.34925 0.33458,-0.53981 4.30065,2.06393 4.87359,3.19955 0.56398,1.11789 2.00637,1.67671 3.4427,1.33247 0.71783,-0.17206 0.3734,-0.5942 -1.0538,-1.29048 l -2.11983,-1.03426 1.86281,0.0846 c 1.02395,0.0464 2.40276,0.42015 3.06433,0.83002 0.70279,0.43542 1.85113,0.41076 2.76265,-0.0598 1.33877,-0.69113 1.71061,-0.49191 2.62005,1.40598 0.58285,1.21638 1.64983,2.57752 2.37133,3.02461 1.16336,0.72092 1.18455,0.48591 0.1913,-2.07788 -0.67373,-1.73904 -2.65628,-4.30539 -4.97616,-6.43899 -4.11104,-3.78101 -4.92648,-4.93105 -2.71659,-3.83041 0.75139,0.37404 2.12209,0.85903 3.0461,1.07719 1.09496,0.25855 1.89148,1.13045 2.28793,2.50457 0.33456,1.15956 1.58855,3.21995 2.78674,4.57879 1.19816,1.35887 2.31324,3.04703 2.4784,3.75026 0.60484,2.57575 -0.62513,6.62812 -2.49894,8.23186 -1.05258,0.90086 -2.66738,2.82222 -3.58758,4.27022 -0.92023,1.44797 -2.28295,2.77669 -3.02905,2.95189 -0.74612,0.17521 -1.48086,0.68817 -1.63244,1.14114 -0.15165,0.45296 -1.47136,1.03339 -2.93265,1.28927 -5.38239,0.94249 -7.93565,1.9647 -7.6757,3.07171 0.13784,0.58704 -0.27718,1.9191 -0.92251,2.9605 -0.64529,1.04137 -1.388,3.50516 -1.65055,5.47528 -0.47679,3.57798 -0.47544,3.58339 1.55529,4.68496 1.11814,0.60658 2.16826,0.88558 2.33233,0.62097 0.16416,-0.26488 0.4229,0.0523 0.57604,0.70468 0.15318,0.65225 0.61791,1.1066 1.03237,1.00928 0.41445,-0.0973 0.63058,0.1898 0.48061,0.63792 -0.14995,0.44814 0.35264,0.66796 1.11655,0.48859 0.76395,-0.1794 1.671,0.0877 2.01532,0.59428 0.36074,0.53067 1.16237,0.637 1.89143,0.2515 0.84576,-0.44723 1.35193,-0.29747 1.52762,0.45072 0.14456,0.61561 -0.0227,1.18664 -0.37189,1.26867 -0.34921,0.082 -0.31525,0.4684 0.0753,0.85979 0.49222,0.49342 0.26743,0.65206 -0.73178,0.51556 -1.4022,-0.19158 -1.39672,-0.16619 0.21551,0.94769 2.16249,1.49407 2.80695,1.276 3.28359,-1.1136 0.25602,-1.28364 0.972,-2.10518 2.05712,-2.36 0.91555,-0.21499 1.58915,-0.71101 1.49725,-1.10237 -0.0918,-0.39134 -0.64736,-0.59875 -1.23438,-0.46091 -0.58704,0.13785 -1.14252,-0.0696 -1.2344,-0.46092 -0.0919,-0.39134 -0.64738,-0.59876 -1.23441,-0.4609 -0.58703,0.13784 -1.17219,-0.19596 -1.30035,-0.74081 -0.12802,-0.54515 -0.80289,-1.06917 -1.5005,-1.16447 -1.05362,-0.14392 -1.38868,-0.96354 -1.97713,-4.8428 -0.65571,-4.32262 -0.85398,-4.7231 -2.66082,-5.38142 -1.68481,-0.61384 -1.87646,-0.93244 -1.40267,-2.3265 0.30194,-0.88835 0.9255,-1.70368 1.38582,-1.81172 0.46027,-0.10809 0.88337,-0.62976 0.93961,-1.15912 0.075,-0.70549 0.55475,-0.71792 1.79904,-0.0471 2.07056,1.11629 4.83499,0.55867 6.36306,-1.28302 0.62473,-0.75297 1.62937,-1.49566 2.23309,-1.65056 0.60372,-0.15489 2.70947,-2.34895 4.67829,-4.87591 1.96881,-2.52696 3.85392,-4.65888 4.18984,-4.73777 0.33594,-0.0789 1.01696,-2.24197 1.51325,-4.80606 0.71231,-3.67973 0.65992,-5.28883 -0.24951,-7.63691 -0.75202,-1.94163 -0.84238,-2.69982 -0.26067,-2.18409 0.63987,0.56728 0.8297,-0.0615 0.67327,-2.22859 -0.17132,-2.37273 -0.75129,-3.65519 -2.71078,-5.99377 -3.50997,-4.1891 -4.76319,-7.01367 -3.49318,-7.87705 0.55249,-0.37559 0.91882,-1.04781 0.81423,-1.4933 -0.10461,-0.44553 -0.62717,-0.51273 -1.16131,-0.14961 -0.53412,0.3631 -1.04383,0.35062 -1.13284,-0.0285 -0.089,-0.37907 0.3973,-0.8258 1.08098,-0.99173 0.68362,-0.16617 1.9481,-0.68012 2.80892,-1.14174 1.45305,-0.77919 1.52312,-0.71533 0.97814,0.88828 -0.83208,2.44837 0.7654,3.31555 2.51014,1.36256 0.7224,-0.80862 1.20503,-1.93228 1.07238,-2.49712 -0.13263,-0.56483 0.0984,-1.10586 0.51283,-1.20319 0.41444,-0.0973 0.60976,0.25122 0.43433,0.77548 -0.21753,0.64994 0.0411,0.70867 0.81177,0.18477 0.62164,-0.42261 1.44565,-0.84155 1.83165,-0.9322 0.38599,-0.0906 -0.22133,-0.97742 -1.34934,-1.96949 l -2.05062,-1.80368 1.95913,0.0303 c 1.73423,0.0265 1.90795,-0.18277 1.52205,-1.82612 -0.27601,-1.17542 -0.0444,-1.94747 0.63154,-2.10621 0.58703,-0.13784 0.949,-0.75448 0.80446,-1.37017 -0.15318,-0.65236 0.24071,-1.13647 0.94407,-1.16016 0.82032,-0.0276 1.46356,0.81654 2.00768,2.63491 0.44029,1.47154 1.42771,3.06402 2.19416,3.53896 1.27227,0.78845 1.44147,0.63021 1.93939,-1.81735 l 0.54482,-2.68057 0.23551,2.70146 c 0.25636,2.94177 1.99708,4.39369 2.06426,1.72185 0.0219,-0.86788 0.36492,-1.46854 0.76222,-1.33554 0.3972,0.13292 0.59212,-0.31098 0.43353,-0.98632 -0.15859,-0.67536 -0.0268,-1.06641 0.29221,-0.86868 0.31912,0.19767 0.87716,-0.3834 1.24042,-1.29194 1.15701,-2.89367 2.01255,-2.07987 1.11172,1.05751 -0.47677,1.66044 -1.0322,3.22673 -1.2344,3.48067 -0.20227,0.25391 -0.35391,0.88082 -0.33683,1.39299 0.0661,1.98494 1.17335,0.43754 3.14787,-4.39923 2.14001,-5.24217 3.14477,-6.16757 2.47791,-2.28168 -0.39025,2.27394 -0.42274,3.0118 -0.20394,4.62179 0.0654,0.48147 -1.23689,1.93641 -2.89376,3.23333 -1.99638,1.5627 -2.58576,2.36062 -1.74698,2.36695 0.69614,0.005 2.11549,-0.71699 3.15297,-1.60494 1.03749,-0.88797 1.99656,-1.63959 2.13201,-1.6714 0.70266,-0.165 0.862,3.51256 0.21191,4.88897 -0.73178,1.54939 -0.70692,1.547 0.91137,-0.11547 0.91486,-0.93986 1.71564,-1.48619 1.77973,-1.21329 0.0641,0.27293 0.77841,-0.47797 1.5871,-1.66895 1.40974,-2.07611 1.45172,-2.09272 1.02215,-0.40307 -0.24642,0.96927 -0.91754,2.19211 -1.49215,2.71771 -0.88789,0.81207 -0.8608,1.09582 0.18349,1.88547 1.13247,0.85631 1.30987,0.81193 2.25538,-0.55659 0.56433,-0.81678 1.07885,-2.17242 1.1435,-3.01356 0.0933,-1.21353 0.29424,-1.35702 0.9717,-0.69272 0.70723,0.69348 0.81666,0.67092 0.6379,-0.13102 -0.12432,-0.55764 0.26803,-0.90212 0.92606,-0.81222 0.66038,0.0902 1.44703,-0.6063 1.86469,-1.65085 0.77578,-1.94022 1.39056,-0.86421 0.79069,1.38393 -0.19922,0.74667 0.0143,2.20315 0.47466,3.23537 0.67044,1.50318 0.99461,1.66772 1.62744,0.83084 1.01394,-1.34092 1.40731,-0.007 0.47207,1.60069 -0.88448,1.52045 -0.71077,3.55472 0.33378,3.90427 0.46003,0.15394 0.75098,-0.1426 0.64657,-0.65859 -0.10438,-0.51602 0.50586,-2.28314 1.35579,-3.92797 1.27701,-2.47141 1.70708,-2.83309 2.47307,-2.0823 0.50984,0.49966 1.07553,1.38041 1.25841,1.95685 0.18284,0.57646 0.36797,0.19801 0.41042,-0.84009 0.0458,-1.12255 0.3507,-1.61252 0.75302,-1.20919 0.37215,0.37302 0.0305,2.22409 -0.75981,4.11297 -1.71737,4.10464 -1.1147,4.26644 1.38366,0.37174 1.23906,-1.93151 1.89335,-2.47797 2.06941,-1.72824 0.14162,0.60312 -0.23827,1.81457 -0.8447,2.69234 -0.84982,1.23002 -0.86673,1.86295 -0.0754,2.76155 1.24084,1.40895 2.22802,1.26137 3.31798,-0.49758 0.44917,-0.72487 1.39509,-1.45377 2.10191,-1.61975 1.42945,-0.33566 3.79161,1.12663 3.24492,2.00888 -0.19233,0.31052 -0.43857,0.19058 -0.54577,-0.26603 -0.10722,-0.45657 -0.51721,-0.75367 -0.91186,-0.661 -0.43159,0.10135 -0.24232,0.63957 0.47453,1.35142 0.9563,0.94966 1.35644,0.96697 2.02758,0.0869 0.70861,-0.92912 0.83223,-0.77951 0.80848,0.97504 -0.0235,1.74103 0.19937,2.01783 1.39561,1.73693 1.36325,-0.32012 1.67328,0.0594 3.66872,4.50306 0.2762,0.61506 0.73397,3.88607 1.01713,7.26895 0.52722,6.29871 -0.0919,10.21009 -2.19982,13.89687 -0.65671,1.14895 -1.05446,2.68834 -0.88254,3.42036 0.17189,0.732 -0.0369,1.21389 -0.46412,1.07091 -0.9706,-0.32478 -3.17874,2.59919 -2.89035,3.82731 0.11742,0.50005 -0.26695,1.02217 -0.85376,1.16006 -0.58702,0.13787 -0.95761,0.71783 -0.82349,1.28904 0.40318,1.71693 -2.94609,13.24566 -5.04278,17.35642 -1.07675,2.11103 -2.53965,4.98844 -3.25074,6.39419 -0.711,1.40577 -1.22905,2.83191 -1.15016,3.16998 0.0789,0.33806 1.56716,0.0474 3.30653,-0.64624 2.31479,-0.92319 3.07764,-1.00935 2.847,-0.32014 -0.22014,0.65788 0.38875,0.7027 2.01952,0.14752 2.06985,-0.70467 2.35074,-0.60915 2.48597,0.84507 0.0839,0.90194 0.61555,2.12849 1.18088,2.72583 0.86341,0.91212 0.94703,0.72752 0.52432,-1.15427 -0.38513,-1.71445 -0.17136,-2.36249 1.02559,-3.02106 l 11.85723,-25.10007 c 0.24613,-1.21858 0.65163,-2.6308 1.25716,-4.37288 0.46889,-1.34889 1.22325,-3.97546 1.67595,-5.8367 0.002,-0.005 0.003,-0.009 0.005,-0.0136 l 1.78125,-11.52273 c -0.0711,-0.36589 -0.005,-0.75729 0.15883,-1.03209 l 0.50441,-3.26235 c -0.11092,-1.65717 -0.38917,-4.03603 -0.8565,-7.34419 -0.20434,-1.44651 -0.21573,-3.09634 -0.0247,-3.66717 0.18954,-0.56626 -0.0666,-2.25469 -0.51513,-4.16199 z m -15.00855,-30.19391 c 0.11491,0.27882 0.0916,0.5867 -0.14761,0.8253 -0.30493,0.30425 -0.85007,0.11748 -1.21178,-0.4146 -0.36172,-0.53208 -0.36653,-1.0354 -0.0105,-1.119 0.60285,-0.14156 1.17843,0.24348 1.36992,0.70831 z m -9.28831,26.6131 c 0.0416,0.29583 -0.0948,0.77393 -0.48891,1.40992 -0.47679,0.76947 -1.27267,1.3615 -1.76847,1.3162 -0.57043,-0.0522 -0.47294,-0.70265 0.26555,-1.77156 0.94946,-1.37422 1.90042,-1.60536 1.99183,-0.95456 z m 11.47036,77.21766 c -0.17008,0.1558 -0.33823,0.3218 -0.50146,0.50724 -0.90892,1.03345 -1.28986,1.75782 -1.25925,2.53045 l 1.76051,-3.0378 z m -19.23118,-36.23152 c -0.23975,-1.58649 -4.55012,-6.00496 -7.95034,-7.89439 -1.86831,-1.03817 -5.49267,-3.16899 -8.05433,-4.73552 -2.56175,-1.56636 -5.24181,-2.7107 -5.95474,-2.54329 -0.71293,0.16741 -1.6784,0.0667 -2.14641,-0.2233 -0.54878,-0.34009 -1.17861,0.71555 -1.77223,2.97354 -0.81786,3.1108 -3.22489,5.90468 -3.62376,4.20599 -0.0833,-0.3547 -0.79183,-0.49447 -1.57454,-0.31065 -1.84558,0.43339 -1.41236,2.19867 0.75112,3.0637 1.68378,0.67326 1.68445,0.67948 0.16829,1.51602 l -1.52369,0.83993 2.41186,1.29885 c 1.32635,0.71452 2.90907,1.18329 3.51617,1.0407 0.67204,-0.15781 1.04294,0.18071 0.94936,0.8657 -0.19355,1.41692 5.60692,5.10254 7.37665,4.68697 0.88271,-0.20729 1.93929,0.64934 3.32863,2.7001 1.59055,2.34773 2.06829,2.69216 2.18766,1.57793 0.19529,-1.82287 -2.58202,-6.65794 -5.09343,-8.86676 -1.08595,-0.9551 -1.68614,-1.96075 -1.36312,-2.283 0.31748,-0.31675 0.85847,-0.29248 1.20313,0.053 0.34464,0.34548 0.88214,0.37298 1.19357,0.0623 0.31145,-0.31068 0.68273,-0.065 0.826,0.54507 0.14328,0.61012 0.58075,1.03438 0.97209,0.94248 0.95203,-0.22357 0.69489,-0.91726 -1.02411,-2.76263 -2.20544,-2.36757 -1.9957,-2.81429 0.7232,-1.54119 1.36615,0.63968 2.60807,1.61214 2.75988,2.16148 0.15176,0.54899 0.43237,0.74644 0.62365,0.43776 0.59953,-0.96748 8.51333,3.12818 8.8549,4.58269 0.11193,0.47667 0.77023,0.94426 1.46157,1.03869 0.95965,0.1311 1.09157,-0.13894 0.56127,-1.14182 -0.38205,-0.72248 -0.35948,-1.5327 0.0501,-1.79957 0.14639,-0.0954 0.19587,-0.26411 0.16157,-0.49078 z m 10.4734,46.9396 c -0.14928,-0.47297 -1.13122,-0.22104 -2.52327,0.80952 -2.4181,1.7902 -2.36499,1.70682 -1.58609,2.48755 0.0878,0.0883 0.17317,0.15112 0.25723,0.20119 l 1.17422,-0.51973 c 0.29336,-0.38119 0.53294,-0.50138 0.77806,-0.34341 l 1.04903,-0.46336 c 0.0449,-0.26727 0.21563,-0.62548 0.4989,-1.08262 0.31563,-0.5093 0.41979,-0.87416 0.35189,-1.08915 z m -11.88382,-41.0362 c -0.13784,-0.58703 -0.56087,-0.99447 -0.93994,-0.90545 -0.37906,0.0891 -0.3915,0.59872 -0.0285,1.13283 0.3631,0.53414 0.78612,0.94158 0.93994,0.90546 0.15379,-0.0361 0.1663,-0.5458 0.0285,-1.13284 z m -1.62086,-3.70528 c -0.0973,-0.41444 -0.49694,-0.67749 -0.8883,-0.58558 -0.39133,0.0919 -0.67843,0.30803 -0.63792,0.4806 0.0405,0.17258 0.44042,0.43675 0.88855,0.58672 0.44816,0.14996 0.73499,-0.0673 0.63766,-0.48172 z m 4.68989,32.68616 c -0.0206,-0.15264 -0.1198,-0.30129 -0.31639,-0.42309 -0.29005,-0.17964 -0.87379,0.0202 -1.29777,0.44315 l -9.6e-4,6e-5 c -0.62008,0.61862 -0.58085,0.78538 0.1988,0.8566 0.83446,0.0762 1.47849,-0.41899 1.41646,-0.87692 z m -11.61126,-29.80918 c -0.0892,-0.37965 -0.33062,-0.46668 -0.74816,-0.36864 -0.39136,0.0919 -0.48225,1.04233 -0.20205,2.11209 0.45149,1.72351 0.54107,1.76659 0.78683,0.37834 0.1894,-1.06982 0.25253,-1.74214 0.16338,-2.12179 z m -13.06765,-54.95499 c -0.0632,-0.18494 -0.24485,-0.27332 -0.50387,-0.21252 -0.41444,0.0973 -0.67861,0.49719 -0.58672,0.88854 0.0919,0.39135 0.30914,0.67819 0.48172,0.63766 0.17256,-0.0405 0.4356,-0.44015 0.58559,-0.88829 0.0563,-0.16806 0.0614,-0.31441 0.0233,-0.42543 z m 15.75361,105.3597 c -2.17707,0.45361 -4.12875,0.62905 -5.80425,0.48549 -2.86753,-0.24569 -3.73355,-0.18482 -4.4294,0.54037 l 0.12375,0.527 9.05071,-1.19269 1.05919,-0.36017 z m -20.3259,-65.15751 c -0.0405,-0.17257 -0.44015,-0.43561 -0.88829,-0.58558 -0.44812,-0.15004 -0.73523,0.0661 -0.6379,0.4806 0.0973,0.41446 0.49718,0.67861 0.88853,0.58673 0.39135,-0.0919 0.67818,-0.30915 0.63766,-0.48174 z m -0.17659,15.38906 c -0.40338,-1.83733 -1.81583,-4.07828 -2.4734,-3.92388 -0.9144,0.21474 -0.3714,1.68905 1.27347,3.45487 0.84648,0.90862 1.33865,1.10088 1.19993,0.46901 z m -11.06452,13.7285 c -0.36275,-1.62293 -0.83274,-2.67619 -1.2795,-2.57128 -0.71922,0.16889 -0.78243,1.38799 -0.33195,6.45958 0.1437,1.61797 0.57228,6.41616 0.95184,10.6628 0.44946,5.02863 0.36901,8.45105 -0.23045,9.81425 -0.95711,2.17651 -0.82683,2.95797 0.30508,1.82876 1.3618,-1.35857 2.22008,-7.2559 1.74016,-11.95772 -0.27369,-2.68145 -0.50864,-6.39241 -0.52192,-8.24748 -0.0156,-2.17331 -0.27051,-4.36599 -0.63326,-5.98891 z m -15.56739,-46.99628 c 0.006,0.0488 -0.002,0.0904 -0.0231,0.12519 -0.17235,0.27805 -0.95297,0.10871 -1.73537,-0.37606 -0.78241,-0.48484 -1.50979,-1.249 -1.61554,-1.69936 -0.10576,-0.45036 0.676,-0.28127 1.73646,0.37586 0.92792,0.57492 1.59966,1.23274 1.63782,1.57447 z m -4.45446,-3.35309 c 0.14869,0.63322 -0.0963,1.0286 -0.54447,0.87863 -0.44816,-0.14996 -0.84351,-0.39501 -0.87863,-0.54447 -0.0351,-0.14947 0.20991,-0.54487 0.54447,-0.87862 0.33456,-0.33376 0.72994,-0.0888 0.87862,0.54446 z m 12.79747,54.63365 c -0.0909,-0.29603 -0.85555,-0.98182 -1.85923,-1.64801 -1.47207,-0.97705 -2.83356,-1.20752 -4.62872,-0.78297 l -2.5441,0.60091 2.53827,1.21754 c 2.37787,1.14097 5.97461,1.53749 6.49094,0.71525 0.0157,-0.0253 0.0156,-0.0605 0.003,-0.10275 z m 10.7499,50.39512 c -0.029,-0.009 -0.0511,-0.0187 -0.0816,-0.0278 -0.63347,-0.18333 -1.4232,-0.0621 -1.75512,0.26903 -0.46601,0.46488 -0.5027,1.23317 -0.24285,1.86829 l 2.07957,-2.10955 z m -23.92762,-97.0563 c 0.0919,0.39134 -0.15305,0.78675 -0.54446,0.87863 -0.39135,0.0919 -0.78672,-0.15315 -0.87862,-0.54447 -0.0919,-0.39136 0.15305,-0.78674 0.54447,-0.87862 0.39135,-0.0919 0.78675,0.15305 0.87862,0.54446 z m 15.26184,66.64696 c -0.0337,-0.25003 -0.23493,-0.60277 -0.63227,-1.05396 -0.61971,-0.70364 -1.71041,-1.34384 -2.42475,-1.42373 -0.71437,-0.0798 -3.85157,-1.60476 -6.97088,-3.38863 -3.11931,-1.78388 -7.60516,-4.34123 -9.96824,-5.68199 -5.02278,-2.84976 -11.96724,-7.92533 -12.20026,-8.91766 -0.089,-0.37941 -0.76806,-0.99265 -1.50932,-1.36183 -0.84375,-0.42007 -1.41354,-1.44345 -1.52364,-2.73684 -0.10967,-1.28823 -0.49824,-1.98987 -1.03257,-1.8644 -0.47133,0.11069 -1.36888,-0.18533 -1.99391,-0.65796 -1.68687,-1.27555 -2.59587,-0.75431 -1.66355,0.95373 l 0.81732,1.49732 -1.64443,-1.17289 c -0.90421,-0.6452 -2.00617,-0.94993 -2.44989,-0.6764 -0.97823,0.60298 -0.94258,0.77564 0.82576,4.00108 0.77092,1.40617 1.543,2.32696 1.71694,2.04624 0.32641,-0.52681 8.88969,3.75508 15.19098,7.59599 1.9682,1.19976 4.88664,2.83713 6.48532,3.6387 2.52911,1.26809 5.87702,3.11507 15.52581,8.56728 2.14562,1.21242 3.55253,1.38598 3.4516,0.63591 z m 5.87362,33.24108 c -0.94672,-1.435 -1.13205,-0.98556 -2.30749,0.86915 -0.71313,1.12531 -1.87203,2.94466 -2.64516,4.15214 l 4.95265,-5.02129 z m -22.90925,-91.071 c -0.26532,-0.73682 -2.5556,-1.79416 -3.6403,-1.53945 -0.63806,0.14983 -1.04986,-0.056 -0.91568,-0.45706 0.1342,-0.40121 -0.28562,-0.80224 -0.93294,-0.89068 -0.95912,-0.13101 -0.97661,0.0671 -0.0937,1.0696 0.59592,0.67661 1.51399,1.1296 2.03935,1.00623 0.52534,-0.12336 1.47391,0.16828 2.10902,0.64848 0.63509,0.48022 1.27212,0.68519 1.41482,0.45491 0.0539,-0.0875 0.057,-0.18679 0.0194,-0.29196 z m -14.3881,-16.35632 c 0.0762,0.26719 -0.007,0.53536 -0.32349,0.73056 -0.42688,0.26311 -0.53415,0.72061 -0.23871,1.01679 0.6677,0.66926 -2.4727,2.36239 -3.6507,1.96818 -0.47362,-0.15847 -1.02272,-0.97326 -1.21946,-1.81113 -0.27824,-1.18487 -0.12337,-1.37796 0.69668,-0.8698 1.43502,0.88916 2.24431,0.60533 1.94219,-0.68129 -0.13785,-0.58703 0.21165,-1.17587 0.77559,-1.30827 0.91282,-0.21436 1.85027,0.36716 2.0179,0.95497 z m 3.04419,69.9746 c -0.18922,-0.80579 -0.66403,-1.38903 -1.05539,-1.29713 -0.39134,0.0919 -0.60324,0.62824 -0.47084,1.19216 0.13242,0.56392 0.60751,1.14826 1.05565,1.29824 0.44816,0.14995 0.65979,-0.38747 0.47058,-1.19327 z m -8.26365,-31.52435 c -0.0425,-0.23632 -1.00164,-0.11357 -2.6124,0.53486 -3.18747,1.28309 -5.27973,2.93146 -6.27454,4.94223 -0.3467,0.70078 -0.5605,1.59563 -0.47506,1.98849 0.0866,0.39803 0.30356,0.30866 0.491,-0.20212 0.41101,-1.12006 5.29574,-5.2962 7.18257,-6.14085 1.20072,-0.53749 1.72145,-0.93882 1.68841,-1.12262 z m 0.79742,7.38742 c -0.0736,-0.18313 -0.28209,-0.41512 -0.60961,-0.66277 -0.62503,-0.47263 -1.24696,-0.83336 -1.38246,-0.80149 -0.13547,0.0318 0.051,0.49481 0.41406,1.02895 0.36311,0.53412 0.98503,0.89484 1.38247,0.80148 0.20823,-0.0489 0.2692,-0.18306 0.19556,-0.36617 z m 2.08687,20.87667 c -0.0315,-0.13112 -0.51647,-0.5157 -1.18091,-0.92746 -0.7594,-0.47055 -1.54913,-1.55206 -1.75504,-2.40331 -0.46886,-1.93544 -1.37278,-2.7781 -3.22503,-3.00832 -1.25252,-0.15566 -1.32497,0.0684 -0.53883,1.68204 0.49905,1.02432 1.35395,2.86144 1.8994,4.08212 0.97012,2.17112 1.63944,2.25696 4.78514,0.61488 0.0152,-0.008 0.0199,-0.0212 0.0156,-0.0398 z m -4.90262,-8.55376 c -0.18782,-0.79979 -2.21352,-1.11151 -2.64959,-0.40779 -0.65538,1.05767 -0.0111,1.70358 1.37583,1.37791 0.7827,-0.18379 1.35582,-0.62064 1.27376,-0.97012 z m -17.21319,-17.35169 c -0.099,-0.34999 -0.30937,-0.62999 -0.57722,-0.71963 -0.42859,-0.14342 -0.62423,0.39907 -0.43502,1.20487 0.40345,1.71806 0.84024,1.79805 1.05929,0.19461 0.0321,-0.23485 0.0124,-0.46991 -0.0471,-0.6799 z m -4.02043,58.16876 c -0.0642,-0.2448 -0.2117,-0.55211 -0.45376,-0.90818 -0.3889,-0.57208 -0.99595,-0.75228 -1.34914,-0.3999 -0.44097,0.43992 -0.30115,0.89801 0.44552,1.46263 0.99484,0.75224 1.55014,0.57989 1.35737,-0.15451 z m 5.46188,35.64407 c -0.90957,-0.5207 -1.81179,-1.05599 -2.69452,-1.60316 -4.68224,-2.90014 -6.24079,-4.34699 -8.41108,-7.81319 -0.30758,-0.49125 -0.61457,-1.02098 -0.91988,-1.56945 l 2.52313,7.52768 9.50233,3.45815 z m -15.04006,-50.50564 c -0.0841,-0.38574 -0.2192,-0.74982 -0.38503,-1.02521 l -1.39503,2.31714 c 0.21646,-0.0635 0.4516,0.0734 0.7742,0.39407 0.76958,0.76511 0.92499,0.70158 1.08115,-0.44156 0.0502,-0.36731 0.018,-0.81668 -0.0753,-1.2446 z m -2.786,2.96285 -0.69015,1.14746 c 0.2164,-0.158 0.43195,-0.53746 0.69015,-1.14746 z m -3.18706,5.29647 -0.95692,1.59015 1.282,3.8259 c -0.33545,-2.1946 -0.46445,-4.07106 -0.32512,-5.41606 z"
           id="path4846"
           inkscape:connector-curvature="0" />
        <path
           style="fill:#000000"
           d="m 327.81237,234.5061 c -8.26128,2.69719 -18.35733,5.19474 -30.59605,7.59284 l -36.31071,7.12732 32.13709,1.17184 c 17.6722,0.64978 37.8806,8.12255 44.91479,16.59825 7.0342,8.47571 23.51492,15.41038 36.61572,15.41038 13.10087,0 26.67039,4.62311 30.16258,10.27359 3.49221,5.65046 11.41684,10.27358 17.60959,10.27358 6.23204,0 3.96478,-8.07117 -5.08863,-18.0751 -3.25369,-3.59526 -5.62869,-6.49463 -7.35203,-9.16593 L 327.81237,234.5061 Z m -86.2179,40.86964 c -7.44727,-1.36031 -34.53913,69.74054 -42.63538,112.89707 -6.7065,35.74879 15.57649,125.70874 39.15198,158.08474 5.33289,7.3236 2.8208,25.90909 -6.24436,46.23114 -30.71013,68.84486 -37.7394,105.94384 -37.7394,199.22733 0,114.51529 -8.89331,142.02656 -50.62946,156.57584 -17.35488,6.04991 -31.55922,18.18917 -31.55922,26.96817 0,13.41951 12.68139,15.29341 79.62028,11.78247 43.79112,-2.29684 79.93663,-4.6153 80.31058,-5.15281 0.37388,-0.53776 -0.10456,-48.36615 -1.05949,-106.28344 -1.16461,-70.64363 2.73812,-113.75809 11.86279,-130.9882 7.48089,-14.12619 19.45833,-46.48797 26.61499,-71.9151 l 13.01861,-46.23113 3.59575,51.36792 c 1.98347,28.25236 -1.81834,81.41816 -8.45967,118.14623 -6.64127,36.72806 -10.52238,92.07187 -8.62021,122.99404 3.43828,55.89373 3.69126,56.29308 44.54561,67.86993 22.60189,6.40464 46.87319,9.50241 53.93632,6.88651 18.16641,-6.72813 15.9308,-30.62203 -3.90075,-41.72045 -13.26969,-7.426 -16.42524,-24.53012 -15.23376,-82.49361 0.82666,-40.21598 6.04202,-85.06182 11.58984,-99.65377 5.54782,-14.59193 13.08073,-59.75971 16.72671,-100.37621 4.14749,-46.2031 13.75428,-84.05304 25.68396,-101.11451 15.79025,-22.58281 19.07032,-46.86267 19.07032,-141.26178 0,-62.69559 -3.94357,-113.98863 -8.7646,-113.98863 -4.82102,0 -6.58536,22.71382 -3.91687,50.48505 4.51028,46.93943 3.13805,50.73547 -19.48767,53.93631 -25.93768,3.6694 -30.34817,21.82612 -17.60958,72.36459 6.68079,26.50503 5.46366,27.59813 -25.53948,22.92291 -23.80562,-3.58984 -27.17782,-2.55829 -12.553,3.83657 18.69586,8.17506 18.36169,9.18944 -5.13679,15.47457 -41.39844,11.07279 -56.61288,8.14292 -83.79399,-16.11671 -23.84433,-21.2816 -25.79065,-29.61423 -24.60845,-105.07953 0.70625,-45.08271 -0.27007,-73.97721 -2.15103,-64.20991 -3.82531,19.86311 -4.37055,20.11165 -25.90867,11.84676 -13.63461,-5.23213 -13.64833,-10.09072 -0.22471,-42.21802 8.34059,-19.96174 13.15587,-38.2922 10.70697,-40.74118 -0.19807,-0.19807 -0.41793,-0.30927 -0.65817,-0.35316 z m 196.36996,80.7761 c -0.96325,-0.43963 -2.30999,1.49929 -4.04525,5.79488 -3.74845,9.27918 -10.52565,9.87348 -24.86528,2.1992 -13.53951,-7.24601 -19.72849,-7.22217 -19.72849,0.0803 0,5.8493 4.62312,10.64279 10.27359,10.64279 21.55497,0 9.12739,20.58324 -12.84198,21.26952 -21.90821,0.68431 -22.04234,1.13741 -2.5684,8.86101 12.50279,4.95877 23.49898,3.67038 28.09185,-3.29075 4.3117,-6.53491 7.68571,-7.02467 7.8657,-1.15582 0.173,5.65047 4.79612,3.33892 10.27358,-5.13679 5.47748,-8.47571 9.66958,-22.34505 9.31042,-30.82076 -0.2201,-5.18791 -0.80249,-8.00403 -1.76574,-8.44357 z m -120.5541,122.62485 -25.68396,0.86684 25.68396,8.23489 c 14.12617,4.524 32.61863,8.60902 41.09433,9.08572 13.69814,0.77043 13.69814,-0.23334 0,-9.08572 -8.4757,-5.47738 -26.96816,-9.57843 -41.09433,-9.10173 z m -95.89751,416.80254 c 4.04352,-0.0726 8.80191,0.33188 14.41515,1.15573 32.74028,4.80524 36.79695,11.84208 17.78613,30.85289 -12.83196,12.83196 -41.68461,16.52149 -51.60865,6.59754 -3.15243,-3.15244 -3.61023,-13.86761 -1.01134,-23.80579 2.64229,-10.10395 8.28816,-14.58241 20.41871,-14.80037 z m 124.14986,13.67669 c 22.01564,0.12263 24.85049,2.35256 12.84198,10.11306 -20.10063,12.99 -41.09433,12.99 -41.09433,0 0,-5.65046 12.71351,-10.19936 28.25235,-10.11306 z"
           id="path4904"
           inkscape:connector-curvature="0" />
      </g>
    </g>
  </g>
</svg>
