<?xml version="1.0" encoding="UTF-8" standalone="no"?>
<!-- Created with Inkscape (http://www.inkscape.org/) -->

<svg
   xmlns:osb="http://www.openswatchbook.org/uri/2009/osb"
   xmlns:dc="http://purl.org/dc/elements/1.1/"
   xmlns:cc="http://creativecommons.org/ns#"
   xmlns:rdf="http://www.w3.org/1999/02/22-rdf-syntax-ns#"
   xmlns:svg="http://www.w3.org/2000/svg"
   xmlns="http://www.w3.org/2000/svg"
   xmlns:xlink="http://www.w3.org/1999/xlink"
   xmlns:sodipodi="http://sodipodi.sourceforge.net/DTD/sodipodi-0.dtd"
   xmlns:inkscape="http://www.inkscape.org/namespaces/inkscape"
   id="svg2"
   version="1.1"
   inkscape:version="0.91 r"
   width="136.56094"
   height="559.16089"
   viewBox="0 0 136.56094 559.16089"
   sodipodi:docname="stacy.svg">
  <metadata
     id="metadata8">
    <rdf:RDF>
      <cc:Work
         rdf:about="">
        <dc:format>image/svg+xml</dc:format>
        <dc:type
           rdf:resource="http://purl.org/dc/dcmitype/StillImage" />
        <dc:title />
      </cc:Work>
    </rdf:RDF>
  </metadata>
  <defs
     id="defs6">
    <linearGradient
       id="linearGradient4154"
       osb:paint="solid">
      <stop
         style="stop-color:#ffffff;stop-opacity:1;"
         offset="0"
         id="stop4156" />
    </linearGradient>
    <linearGradient
       id="linearGradient4146"
       osb:paint="solid">
      <stop
         style="stop-color:#ffffff;stop-opacity:1;"
         offset="0"
         id="stop4148" />
    </linearGradient>
    <linearGradient
       id="linearGradient4138"
       osb:paint="solid">
      <stop
         style="stop-color:#165016;stop-opacity:1;"
         offset="0"
         id="stop4140" />
    </linearGradient>
    <linearGradient
       inkscape:collect="always"
       xlink:href="#linearGradient4146"
       id="linearGradient4150"
       x1="9.7924942"
       y1="319.56216"
       x2="40.515868"
       y2="319.56216"
       gradientUnits="userSpaceOnUse" />
    <linearGradient
       inkscape:collect="always"
       xlink:href="#linearGradient4154"
       id="linearGradient4158"
       x1="94.710574"
       y1="262.78301"
       x2="128.85577"
       y2="262.78301"
       gradientUnits="userSpaceOnUse" />
  </defs>
  <sodipodi:namedview
     pagecolor="#ffffff"
     bordercolor="#666666"
     borderopacity="1"
     objecttolerance="10"
     gridtolerance="10"
     guidetolerance="10"
     inkscape:pageopacity="0"
     inkscape:pageshadow="2"
     inkscape:window-width="1920"
     inkscape:window-height="1023"
     id="namedview4"
     showgrid="false"
     inkscape:zoom="1.5505376"
     inkscape:cx="68.280472"
     inkscape:cy="279.58045"
     inkscape:window-x="0"
     inkscape:window-y="0"
     inkscape:window-maximized="1"
     inkscape:current-layer="svg2"
     fit-margin-top="0"
     fit-margin-left="0"
     fit-margin-right="0"
     fit-margin-bottom="0" />
  <g
     id="g4160">
    <path
       inkscape:connector-curvature="0"
       id="path4144"
       d="m 14.833565,298.6061 -4.514563,29.66713 10.963939,14.18863 3.869625,1.28987 14.833565,-12.89875 -4.514563,-35.47157 z"
       style="fill:url(#linearGradient4150);fill-rule:evenodd;stroke:#000000;stroke-width:1px;stroke-linecap:butt;stroke-linejoin:miter;stroke-opacity:1;fill-opacity:1" />
    <path
       inkscape:connector-curvature="0"
       id="path4152"
       d="m 113.50902,234.11234 -18.058256,42.56588 26.442446,1.28988 -1.93482,13.54369 4.51457,-1.28988 3.86962,-20.638 -9.02913,-31.60194 z"
       style="fill:url(#linearGradient4158);fill-rule:evenodd;stroke:#000000;stroke-width:1px;stroke-linecap:butt;stroke-linejoin:miter;stroke-opacity:1;fill-opacity:1" />
    <path
       inkscape:connector-curvature="0"
       id="path4136"
       d="m 53.52982,14.833559 37.406381,0.644938 18.703189,57.399445 c 0,0 -14.833564,30.312068 -14.833564,34.826628 0,4.51457 10.319004,50.95007 10.319004,50.95007 l -12.253816,72.87795 4.514563,55.46463 0,79.32733 c 0,0 -10.963939,42.56588 -8.384189,42.56588 2.57975,0 -7.094314,32.89182 -7.094314,32.89182 l 6.449376,16.76837 0.644938,7.09432 -7.739251,3.22469 0,13.54368 -18.70319,-3.86962 0.644937,-25.7975 L 40.631068,392.76699 36.116505,344.39667 38.051318,199.93065 52.884883,99.320384 43.210819,25.15256 Z"
       style="fill:#ffffff;fill-rule:evenodd;stroke:#000000;stroke-width:1px;stroke-linecap:butt;stroke-linejoin:miter;stroke-opacity:1;fill-opacity:1" />
    <g
       transform="translate(-65.095707,75.900779)"
       id="g4238">
      <path
         style="fill:#000000"
         d="m 146.28134,-74.945735 -9.3999,1.081389 -9.3992,1.081312 -1.18569,1.440942 c -0.65203,0.792718 -1.32561,1.456869 -1.49663,1.475473 -0.17099,0.0186 -0.3797,0.495939 -0.46362,1.061158 -0.15053,1.013586 -0.1744,1.010934 -1.7764,-0.210056 -0.89333,-0.680877 -2.0494,-1.316575 -2.56846,-1.412456 -2.22857,-0.411662 -9.07109,3.19813 -11.31827,5.97087 -0.56724,0.699895 -1.37354,1.446283 -1.79211,1.658587 -0.41858,0.212305 -0.81599,1.003175 -0.88334,1.757481 -0.0693,0.776192 -0.47579,1.527277 -0.93657,1.730665 -0.44776,0.19765 -0.79248,0.559638 -0.76588,0.804148 0.0266,0.24451 0.26569,0.275278 0.53122,0.06837 0.30153,-0.234947 0.38262,-0.165649 0.21567,0.184213 -0.14703,0.308103 -0.44271,0.476226 -0.65674,0.374093 -0.46934,-0.223948 -2.37404,1.570526 -3.72303,3.507346 -1.359752,1.952262 -4.096152,8.058675 -4.008892,8.945745 0.0397,0.401745 -0.20748,1.018554 -0.54901,1.370972 -0.37884,0.390913 -0.47352,0.975994 -0.24225,1.499911 0.27362,0.6199 0.21222,0.779081 -0.22052,0.572588 -0.45044,-0.214934 -0.48999,0.0099 -0.15879,0.905378 0.26396,0.713675 0.25907,1.105352 -0.0122,0.975904 -0.25928,-0.123721 -0.29928,0.185376 -0.0943,0.72329 0.23544,0.617713 0.1782,0.85397 -0.1667,0.689351 -0.3075,-0.146733 -0.48005,0.07754 -0.41669,0.541477 0.0594,0.435535 0.009,1.823411 -0.11105,3.083944 -0.25621,2.686814 -0.40493,8.432009 -0.31819,12.28238 0.0336,1.493288 0.036,3.534326 0.005,4.535658 -0.0309,1.001333 -0.0587,2.535318 -0.0615,3.40885 -0.003,0.873535 -0.111415,2.518377 -0.240984,3.655183 -0.603686,5.2962909 1.740204,18.4130928 3.201344,17.915657 0.25632,-0.087256 0.38033,0.1664497 0.2754,0.5640018 -0.11231,0.4255169 0.33374,1.1674989 1.08437,1.8042584 0.88527,0.7509669 1.31998,1.5623348 1.422722,2.6534288 0.0814,0.864355 0.32348,2.062809 0.53779,2.663226 0.21425,0.600413 0.64104,1.778768 0.94827,2.618562 0.71356,1.950482 0.69288,4.730375 -0.0409,5.487604 -0.0807,0.08323 -0.15439,0.18495 -0.21942,0.296042 l 0.47829,0.656746 c 0.0648,-0.02322 0.11214,0.0172 0.1269,0.13717 0.002,0.01407 7e-4,0.02497 0.002,0.03873 l 4.33133,5.948269 18.08938,11.563541 c 0.94265,0.01641 2.41799,-0.104275 4.85538,-0.369423 6.41081,-0.69739 8.52399,-1.21309 8.12802,-1.983508 -0.14609,-0.284208 0.0923,-0.919504 0.52973,-1.411406 0.43745,-0.491891 0.65562,-1.165729 0.48486,-1.497946 -0.17075,-0.332216 -0.0866,-0.628489 0.18641,-0.658185 0.27296,-0.02969 0.46302,-0.356562 0.42279,-0.726419 -0.0413,-0.380025 -0.47476,-0.628792 -0.9964,-0.572046 -0.5077,0.05523 -0.82172,-0.112635 -0.69759,-0.372775 0.12554,-0.263095 -0.0477,-0.33174 -0.39111,-0.155208 -0.43466,0.223408 -0.86149,-0.235833 -1.44019,-1.550081 -0.60118,-1.365277 -1.09157,-1.876005 -1.82486,-1.900186 -0.55155,-0.01818 -1.18648,-0.449801 -1.41135,-0.959251 -0.47997,-1.087368 -1.28643,-1.761932 -2.07882,-1.739321 -1.25439,0.03574 -1.38677,-0.0676 -1.25211,-0.974445 0.086,-0.57902 -0.25071,-1.28814 -0.86994,-1.833261 -0.78981,-0.695283 -1.04984,-1.431227 -1.19396,-3.378588 -0.10139,-1.369451 -0.0684,-2.732324 0.0731,-3.028784 0.14144,-0.296459 0.0991,-0.846596 -0.094,-1.222338 -0.55406,-1.077967 0.47033,-0.892718 1.63401,0.295706 0.59211,0.6047 1.02695,0.806988 0.98841,0.45951 -0.0874,-0.784796 -2.04491,-3.354069 -2.51612,-3.30281 -0.38647,0.04204 -0.80628,-0.568961 -4.94371,-7.1992722 -2.00306,-3.2100079 -3.27415,-5.9072282 -4.47448,-9.4929024 -0.92219,-2.7548552 -2.40911,-6.7662201 -3.30445,-8.9142454 -1.88213,-4.515435 -2.98407,-10.289477 -2.61797,-13.719334 0.13815,-1.294404 0.22572,-3.665763 0.19434,-5.269677 -0.0314,-1.603918 0.003,-3.042518 0.0768,-3.197167 0.0738,-0.154645 0.0324,-1.690942 -0.0921,-3.413404 -0.1244,-1.722465 0.009,-4.28192 0.29625,-5.688314 0.28734,-1.406392 0.57411,-3.091513 0.63741,-3.744377 0.16673,-1.719552 6.37523,-10.179157 7.56543,-10.308632 0.31777,-0.03457 0.84845,-0.400258 1.17966,-0.812302 0.66543,-0.827875 3.85632,-1.332795 13.875,-2.196891 4.54994,-0.392431 6.29656,-0.361448 7.94462,0.142227 2.26921,0.693503 4.43174,2.455056 5.55495,4.523758 0.38373,0.706731 1.12842,1.785085 1.65486,2.396403 0.63151,0.733327 0.80598,1.229692 0.51169,1.459005 -0.3158,0.246073 -0.28861,0.500608 0.0941,0.871492 0.2973,0.288119 0.70011,1.29779 0.89545,2.243698 0.19534,0.945909 0.5383,2.055117 0.76149,2.465238 0.32523,0.597654 -0.007,0.971586 -1.67265,1.883743 -4.14852,2.272159 -6.10224,3.627882 -6.04739,4.19539 0.0902,0.934977 3.64669,0.120812 5.30427,-1.214213 2.44405,-1.968464 3.02358,-1.915209 4.46802,0.409147 1.22365,1.969089 1.24857,2.096212 0.54497,2.755293 -0.50727,0.475165 -1.46378,0.688214 -3.06149,0.68176 -2.61693,-0.01057 -4.80641,1.014453 -2.86163,1.339741 0.57175,0.09563 1.05918,0.50571 1.08355,0.910569 0.0281,0.467247 -0.0604,0.54014 -0.2426,0.200044 -0.4891,-0.912824 -1.04529,-0.509412 -0.66681,0.483632 0.24527,0.643523 0.18353,0.855878 -0.19593,0.674811 -0.30459,-0.145349 -0.58557,-0.554904 -0.62422,-0.910214 -0.0387,-0.355311 -0.272,-0.623909 -0.51858,-0.597086 -0.24657,0.02682 -0.38247,0.653996 -0.302,1.393717 0.17349,1.594827 -0.36417,1.79984 -1.24883,0.476067 -0.59833,-0.895306 -0.61267,-0.877085 -0.23898,0.311638 0.34471,1.096556 0.27671,1.245842 -0.51445,1.128352 -0.66948,-0.09942 -0.8244,0.03415 -0.58313,0.503589 0.18067,0.351524 0.0716,0.839673 -0.24278,1.084621 -0.31431,0.24494 -0.42209,0.565266 -0.23936,0.712141 0.18274,0.146876 0.8282,-0.218287 1.43419,-0.81164 1.44575,-1.415644 1.72711,-1.398425 1.69678,0.103894 -0.0376,1.863375 0.69081,2.430397 2.82546,2.198183 2.17438,-0.236537 2.71258,-0.926318 2.28738,-2.930864 -0.26215,-1.235764 -0.18906,-1.3653 0.65388,-1.156277 0.62748,0.155604 1.04961,0.711309 1.24505,1.63935 0.26125,1.240492 0.11934,1.501153 -1.21663,2.238143 -0.83154,0.458759 -2.07231,0.898691 -2.75791,0.976902 -0.83402,0.09535 -1.03944,0.244094 -0.62012,0.450202 0.34471,0.169425 1.61235,-1.7e-5 2.81677,-0.377293 1.52144,-0.476587 2.50712,-0.569737 3.22939,-0.304531 0.57179,0.209942 1.44961,0.401635 1.95081,0.425688 1.07862,0.05177 2.64858,2.414435 3.87576,5.832682 1.22181,3.403226 1.39089,5.807814 0.64166,9.130196 -0.35867,1.59047 -0.59249,4.0714103 -0.52009,5.5134953 0.25828,5.1449016 0.0876,6.47172345 -1.29225,10.0458138 -1.01947,2.6407111 -1.24906,3.7398517 -0.84886,4.0615303 0.4002,0.3216787 0.34209,0.4631869 -0.21379,0.5236575 -0.41917,0.045598 -0.74019,0.2846525 -0.71337,0.5312204 0.0268,0.2465775 0.38972,0.4112243 0.80671,0.3658627 0.66155,-0.071965 0.65648,0.014356 -0.0398,0.6762632 -0.68111,0.6474838 -0.69462,0.8113318 -0.0916,1.1192108 1.34964,0.689046 0.17731,1.004807 -1.28011,0.344804 -1.45458,-0.658684 -1.47069,-0.654679 -2.10413,0.497519 -0.35112,0.6387 -0.92182,1.5135 -1.26776,1.943895 -1.00981,1.25632 -2.39703,3.888182 -2.42355,4.597845 -0.0134,0.359478 -0.14957,0.808789 -0.30242,0.998973 -0.15287,0.190177 -0.23849,0.707172 -0.19041,1.149088 0.0481,0.441918 -0.18874,1.548898 -0.52623,2.46002 -0.4432,1.196488 -0.83867,1.614746 -1.42401,1.504433 -0.97743,-0.184207 -0.98247,0.09307 -0.0251,1.313271 0.98751,1.258713 1.38422,4.649652 0.73778,6.305875 -0.29133,0.746312 -0.47105,1.898778 -0.39901,2.561005 0.072,0.662217 -0.0727,1.45755 -0.32161,1.767249 -0.74718,0.929582 0.094,1.884203 1.52044,1.766743 l 0.4816,-0.06205 c 0.7594,-0.134263 0.92517,-0.389733 0.85273,-1.100655 -0.13548,-1.337846 0.38717,-2.332665 1.36098,-2.585555 1.01,-0.262293 2.11509,0.45309 1.78113,1.152926 -0.14052,0.294499 -0.24295,0.895261 -0.22762,1.3346 0.0133,0.380942 0.2124,0.558426 1.42297,0.532014 l 2.98417,-0.382749 11.99399,-14.464705 0.71494,-1.487548 0.0445,0.572102 0.45921,-0.554605 c 0.0695,-0.890229 0.68878,-2.642133 0.99399,-2.675335 0.14878,-0.01619 0.68322,-0.89895 1.18781,-1.96213 0.97988,-2.064562 2.74557,-3.892165 2.84829,-2.947938 0.0657,0.603935 0.37398,0.358048 0.42392,-0.33813 0.018,-0.251454 0.20252,-0.879164 0.41033,-1.394871 0.2078,-0.515699 0.26571,-2.3591681 0.12847,-4.0965596 -0.21316,-2.6982375 -0.19636,-3.5910694 0.0986,-5.2380007 0.0229,-0.1272361 0.21615,0.099737 0.42977,0.5039697 0.67947,1.2857751 1.59539,-0.00896 1.3472,-1.9043329 -0.15736,-1.20149895 -0.096,-1.46739225 0.20412,-0.88621165 0.25019,0.4845922 0.52756,0.6216925 0.66673,0.3300576 0.34132,-0.7153173 -0.32809,-7.34756815 -0.89315,-8.84838515 -0.34007,-0.903361 -0.31889,-1.189426 0.0731,-1.002375 0.32574,0.155431 0.516,-0.03254 0.46912,-0.463543 -0.0434,-0.3989643 -0.25422,-0.5886413 -0.46833,-0.4218113 -0.2141,0.1668353 -0.53851,0.1115603 -0.72065,-0.122191 -0.18215,-0.233749 -0.11733,-0.447945 0.14381,-0.476353 0.26112,-0.0284 0.40926,-0.503814 0.32947,-1.056487 -0.0952,-0.658836 -0.2089,-0.768346 -0.33161,-0.318318 -0.10378,0.380704 -0.71099,-0.641165 -1.36306,-2.294187 -0.6466,-1.639144 -1.10431,-3.068636 -1.0175,-3.176645 0.0868,-0.108013 0.52174,0.739844 0.96686,1.883662 0.44511,1.143822 1.02575,2.260004 1.2905,2.480696 0.31067,0.25896 0.31636,0.01705 0.0158,-0.682153 -1.51259,-3.518944 -2.30355,-7.460967 -1.51417,-7.546839 0.25715,-0.02797 0.1965,-0.585567 -0.1582,-1.454225 -0.69397,-1.699592 -0.69968,-1.73609 -0.24705,-1.521105 0.54707,0.259784 0.33548,-2.340817 -0.29032,-3.567616 -0.36492,-0.715387 -0.39091,-1.007286 -0.0762,-0.857132 0.26235,0.125187 0.45308,0.008 0.42383,-0.260865 -0.0292,-0.268863 -0.36849,-0.572582 -0.75379,-0.674274 -0.3853,-0.101697 -0.74122,-0.558952 -0.79096,-1.016113 -0.0497,-0.45716 -0.59044,-1.205585 -1.20158,-1.663217 -0.91497,-0.685151 -0.95753,-0.791001 -0.23992,-0.60259 0.76508,0.200865 0.79773,0.12026 0.26586,-0.657611 -0.33323,-0.487337 -0.70747,-1.413829 -0.83207,-2.058514 -0.29505,-1.526447 -1.96248,-2.324713 -1.80352,-0.863438 0.17757,1.632271 -0.36502,0.721271 -0.78909,-1.324637 -0.21762,-1.049953 -0.60252,-2.010835 -0.85461,-2.135444 -0.65413,-0.32331 -2.73695,-3.464216 -2.8327,-4.271295 -0.1534,-1.29364 -2.33219,-5.839735 -2.85254,-5.952494 -0.28764,-0.06232 -0.54289,-0.450794 -0.56816,-0.863865 -0.0286,-0.468353 0.0619,-0.54958 0.24094,-0.215454 0.52701,0.983581 0.98864,0.475641 0.68617,-0.755076 -0.2054,-0.835848 -0.065,-0.696555 0.45108,0.445661 0.70431,1.558826 1.64755,1.806872 0.98941,0.260226 -0.16765,-0.39398 0.0591,-0.24529 0.50442,0.329998 0.4452,0.575298 0.80264,0.917804 0.79443,0.761283 -0.0308,-0.588047 -2.98892,-6.138421 -3.71092,-6.962692 -0.86745,-0.990275 -1.054,-1.714159 -0.35579,-1.380989 0.74259,0.354341 0.47049,-0.586459 -0.36354,-1.256816 -0.41009,-0.329625 -0.78244,-0.937796 -0.82746,-1.35165 -0.053,-0.487403 -0.31079,-0.634989 -0.73165,-0.418682 -0.49651,0.255195 -0.61576,0.09192 -0.50707,-0.693315 0.1078,-0.778752 -0.30703,-1.362239 -1.71164,-2.410072 -1.01931,-0.760414 -1.54208,-1.054547 -1.16187,-0.653269 1.45788,1.538686 0.22432,1.016999 -3.77361,-1.596765 -4.46853,-2.921427 -7.44737,-4.599454 -9.73487,-5.48378 -0.79208,-0.306207 -1.33859,-0.683148 -1.21454,-0.837494 0.37515,-0.466725 7.96563,2.405303 9.84553,3.725302 0.96555,0.677975 1.95436,1.211342 2.19713,1.184933 0.88918,-0.09673 9.68164,7.819491 11.4569,10.315341 2.50233,3.518024 5.95122,11.053 6.22922,13.608588 0.0541,0.49768 0.30391,0.882687 0.55519,0.855352 0.49277,-0.0536 0.36851,-0.504442 -1.64118,-5.945349 -0.70876,-1.918832 -1.38616,-3.78437 -1.50564,-4.14561 -0.11957,-0.36123 -0.78863,-1.615289 -1.48683,-2.786793 -0.69819,-1.171507 -1.32111,-2.328519 -1.38398,-2.571172 -0.29105,-1.123697 -2.71324,-4.516789 -3.60072,-5.043955 -0.36105,-0.214465 -0.83833,-0.750883 -1.06097,-1.191581 -0.27703,-0.54839 -0.68592,-0.693875 -1.29553,-0.461532 -0.77282,0.294546 -0.8241,0.235532 -0.38391,-0.447296 0.28199,-0.437432 0.29584,-0.627144 0.0309,-0.4265 -0.26402,0.199928 -1.41076,-0.344736 -2.57029,-1.220887 -1.15152,-0.87008 -2.25587,-1.564118 -2.45435,-1.542527 -0.19848,0.02159 -0.65599,-0.193202 -1.01662,-0.477699 -1.32953,-1.048841 -5.28982,-2.984511 -8.16625,-3.990906 l -2.96015,-1.034824 z m -35.93821,10.28073 c 0.12329,-0.01341 -0.0968,0.418794 -0.48949,0.960491 -0.39264,0.541696 -0.81449,0.995845 -0.93778,1.009257 -0.12328,0.01341 0.0968,-0.418791 0.48948,-0.960489 0.39265,-0.541696 0.8145,-0.995847 0.93779,-1.009259 z m 2.02634,0.266503 c 0.0582,-0.0046 0.10836,0.0079 0.14666,0.03862 0.15305,0.123015 -0.0683,0.400562 -0.49211,0.617016 -0.61247,0.312799 -0.67005,0.267151 -0.27875,-0.22342 0.20307,-0.254601 0.44942,-0.418393 0.6242,-0.432218 z m 53.74591,1.377955 c 0.12329,-0.01341 0.72086,0.53397 1.32805,1.216393 0.6072,0.682421 1.00301,1.251752 0.87972,1.265164 -0.12328,0.01341 -0.72084,-0.533974 -1.32803,-1.216396 -0.60721,-0.68242 -1.00302,-1.25175 -0.87974,-1.265161 z m 1.36399,16.682373 c 0.0634,0.01499 0.18439,0.09883 0.36834,0.245571 0.33949,0.270776 0.51662,0.617819 0.3936,0.770866 -0.12302,0.153046 -0.40057,-0.06829 -0.61701,-0.492109 -0.1955,-0.382796 -0.25066,-0.549301 -0.14496,-0.524325 z m 2.32325,0.14206 c -0.0241,0.0086 -0.006,0.08357 0.0615,0.232173 0.21524,0.47557 0.46084,1.06124 0.54558,1.301514 0.0848,0.240268 0.49099,1.26776 0.90261,2.283321 0.41161,1.015564 0.82838,1.837773 0.92666,1.827082 0.43365,-0.04717 -0.80082,-3.462068 -1.73569,-4.801014 -0.38958,-0.557959 -0.64752,-0.861917 -0.70057,-0.843082 z m -50.89682,6.451773 c -2.22269,0.310696 -3.64507,1.523425 -4.4869,3.737161 -0.83315,2.19092 -0.30571,2.326941 0.73654,0.189923 0.40797,-0.83653 1.23628,-1.87367 1.8409,-2.304636 1.0125,-0.721704 1.2887,-0.70984 3.49704,0.155419 2.25954,0.885322 6.57937,1.196513 6.50013,0.468053 -0.0656,-0.602754 -2.65587,-1.812472 -4.54004,-2.120106 -1.36159,-0.222314 -2.53736,-0.267038 -3.54767,-0.125814 z m 54.2602,-2.723013 c -0.19843,0.02159 -0.0698,0.612497 0.28527,1.312816 0.35512,0.700325 0.70705,1.196082 0.78261,1.102079 0.24915,-0.309972 -0.69939,-2.454981 -1.06788,-2.414895 z m 3.35212,-0.21227 c -0.018,-0.0071 -0.0332,-0.0032 -0.0455,0.01199 -0.0977,0.121506 0.0408,0.941525 0.30746,1.822858 0.26665,0.881341 0.56438,1.5032 0.66204,1.381693 0.0977,-0.12151 -0.0408,-0.941525 -0.30745,-1.822857 -0.23333,-0.771172 -0.49045,-1.344086 -0.61657,-1.393728 z m -0.96858,3.267246 c -0.1347,-0.0114 -0.0945,0.565561 0.23011,1.593827 0.24321,0.770531 0.52525,1.297386 0.62705,1.170739 0.10178,-0.12664 -0.023,-0.849216 -0.27744,-1.605688 -0.26419,-0.785169 -0.47492,-1.150004 -0.5797,-1.15888 z m -53.29475,6.71121 c -0.0661,0.01081 -0.126,0.02449 -0.17837,0.04136 -0.36155,0.116704 -1.41266,0.454922 -2.33589,0.75167 -0.92324,0.296746 -1.75446,0.826968 -1.8472,1.178355 -0.0927,0.351391 -0.33675,0.55902 -0.5424,0.460884 -0.40285,-0.192231 -0.88486,1.549021 -0.67669,2.4452 0.0809,0.34759 -0.17628,0.468197 -0.70808,0.332188 -0.7334,-0.187568 -0.75069,-0.129623 -0.13821,0.475743 0.601,0.59402 0.59689,0.700557 -0.0298,0.768727 -0.40005,0.04352 -0.70516,0.28084 -0.67834,0.527413 0.0268,0.246574 0.32345,0.418436 0.6589,0.381944 0.33545,-0.03649 1.39889,0.352282 2.36353,0.86418 0.96464,0.511897 2.42923,1.049132 3.25483,1.193203 2.04145,0.356251 3.19914,0.252069 2.80628,-0.252115 -0.17921,-0.229996 -0.0115,-0.452371 0.37294,-0.494189 0.3844,-0.04182 0.67448,-0.302241 0.64437,-0.579001 -0.0401,-0.368273 0.12019,-0.387872 0.59668,-0.07275 1.12484,0.743998 2.20775,-0.671803 1.77847,-2.324779 -0.45406,-1.748407 0.0353,-1.814603 1.96128,-0.266517 0.83246,0.669111 1.62619,1.076887 1.76349,0.906066 0.13731,-0.170824 -0.57131,-0.913586 -1.57441,-1.650302 -1.00311,-0.736706 -1.64469,-1.479443 -1.42556,-1.650192 0.21913,-0.170749 0.37455,-0.531378 0.34515,-0.801615 -0.0294,-0.270234 -0.44542,-0.05967 -0.9244,0.467708 l -0.87098,0.958756 0.13318,-1.37535 c 0.12119,-1.252517 0.0978,-1.280349 -0.26214,-0.3117 -0.45484,1.224252 -1.22897,1.531813 -0.92129,0.366014 0.14735,-0.558266 0.0521,-0.657947 -0.3383,-0.353737 -0.36729,0.286195 -0.49225,0.213627 -0.38512,-0.223898 0.0872,-0.356076 0.40682,-0.618173 0.7099,-0.582589 0.3031,0.03558 0.41148,-0.114198 0.2409,-0.333107 -0.38222,-0.49053 -2.80149,-1.007765 -3.79275,-0.847628 z m 2.10794,0.508531 c 0.0887,-0.01961 0.17725,-0.0013 0.25936,0.06464 0.0962,0.07727 -0.0494,0.674842 -0.32332,1.327992 -0.48032,1.14524 -0.50196,1.1527 -0.62034,0.207115 -0.09,-0.718343 0.29988,-1.515002 0.6843,-1.599745 z m 53.56444,-5.646184 c -0.069,-0.003 -0.0973,0.166534 -0.0752,0.494407 0.032,0.474708 0.16661,0.727987 0.29937,0.562811 0.13274,-0.165175 0.10623,-0.553777 -0.0584,-0.863325 -0.0682,-0.12828 -0.12421,-0.192166 -0.16569,-0.193899 z m -1.22748,1.780031 c -0.21677,0.04452 0.78414,4.078602 1.13996,4.536947 0.13393,0.172547 0.30475,0.307064 0.37982,0.298898 0.21881,-0.0238 -1.20099,-4.609119 -1.49475,-4.827227 -0.01,-0.0071 -0.018,-0.01005 -0.025,-0.0086 z m -54.34624,7.717949 c 0.39511,-0.04509 0.49571,0.334579 0.23335,1.128517 -0.29082,0.879979 -0.22939,1.444714 0.24384,2.241578 0.71379,1.201984 0.304,1.401258 -1.53751,0.747749 -1.37664,-0.488537 -1.56781,-2.183315 -0.36501,-3.236997 0.63201,-0.553607 1.11793,-0.845718 1.42523,-0.880835 z m 27.9334,-2.760137 c 0.78433,-0.15303 2.04465,1.223283 1.81578,2.090423 -0.20041,0.759335 -0.47973,0.867837 -0.62773,0.243356 -0.0576,-0.243221 -0.15013,-0.624642 -0.20558,-0.847312 -0.20653,-0.829977 -0.91191,-1.023519 -1.2457,-0.342209 -0.29456,0.601226 -0.35803,0.595995 -0.43225,-0.03165 -0.0471,-0.404803 0.19723,-0.881973 0.54518,-1.060814 0.0474,-0.0244 0.098,-0.04158 0.15029,-0.05181 z m -25.16736,3.467131 c 0.60368,-0.08744 1.38613,0.260235 1.73503,0.963738 0.26046,0.525083 0.31985,1.074 0.13203,1.220334 -0.48282,0.376221 -0.96167,-0.102872 -1.06655,-1.066933 -0.0492,-0.452049 -0.29111,-0.799735 -0.5377,-0.772911 -0.24656,0.02682 -0.41407,0.36345 -0.37225,0.747861 0.0418,0.384414 -0.12988,0.600327 -0.38154,0.480241 -0.25167,-0.120083 -0.37347,-0.537497 -0.27037,-0.928154 0.10092,-0.382382 0.39911,-0.591717 0.76133,-0.644174 z m 23.56937,-1.73752 c 0.27677,-0.03011 0.52335,0.132655 0.54831,0.36208 0.0249,0.229426 0.50882,0.455293 1.07523,0.501801 0.98637,0.08098 0.98965,0.09188 0.0825,0.249731 -0.52094,0.09064 -1.23099,-0.110618 -1.57819,-0.447087 -0.43613,-0.42267 -0.47546,-0.628709 -0.12783,-0.666526 z m -25.29325,2.889702 c 0.15494,-0.04011 0.47379,0.223197 0.76358,0.646981 0.41749,0.610604 0.455,0.896728 0.12341,0.9328 -0.5435,0.05912 -1.27192,-1.133532 -0.94259,-1.543257 0.0148,-0.01852 0.0335,-0.03078 0.0556,-0.03654 z m 10.0044,18.7249993 c -0.26328,0.02472 -0.43467,0.13512 -0.41234,0.340416 0.017,0.156244 0.57473,0.656927 1.2395,1.112622 0.84261,0.5776014 1.8595,0.7691942 3.35774,0.6341177 l 2.14924,-0.1934078 -1.97258,-0.3651989 c -1.08497,-0.200821 -2.32185,-0.645299 -2.74842,-0.988168 -0.48007,-0.385872 -1.17434,-0.581682 -1.61314,-0.540385 z m 11.88845,-1.257125 c -0.4931,0.054 -1.26553,0.459308 -1.71653,0.900476 -0.79637,0.779027 -0.78875,0.789108 0.26546,0.355284 0.59701,-0.24567 1.36944,-0.650992 1.71654,-0.900475 0.50707,-0.364477 0.45494,-0.434016 -0.26547,-0.355285 z m -12.6013,11.9118333 c -0.16713,0.00966 -0.30351,0.090513 -0.4233,0.2395445 -0.98819,1.2294335 2.03424,2.5084068 5.26702,2.228856 1.10005,-0.095136 2.21844,0.00221 2.48517,0.2165858 0.26762,0.2151031 0.68264,0.1979782 0.92574,-0.038324 0.24229,-0.2355092 0.98073,-0.6210922 1.64119,-0.8568389 1.69182,-0.6038916 1.42769,-1.45085 -0.30588,-0.9809919 -0.77274,0.2094348 -1.63368,0.2701088 -1.9132,0.1351214 -0.2795,-0.1349928 -1.11693,-0.2141645 -1.86127,-0.176011 -0.74433,0.038129 -1.3575,0.030926 -1.36262,-0.016208 -0.005,-0.047137 -0.45908,-0.087116 -1.00903,-0.088692 -0.54996,-0.00157 -0.87887,0.1530378 -0.73021,0.3438092 0.52886,0.6787246 -0.41518,0.4054114 -1.54708,-0.4476378 -0.52264,-0.3939022 -0.88793,-0.5752265 -1.16652,-0.5592008 z m 14.05449,0.1565892 c -0.41737,0.041521 -0.86176,0.2907872 -0.98732,0.553937 -0.28895,0.605535 0.30453,0.5409743 1.12079,-0.1219232 0.53878,-0.4375648 0.52049,-0.4971658 -0.1335,-0.4320105 z m -12.00086,4.2894768 c -0.52548,0.073425 0.27905,1.2471839 2.10007,2.8207304 1.36732,1.181511 2.48089,1.787721 3.08057,1.676409 0.59114,-0.109715 0.82874,-0.390022 0.64074,-0.755801 -0.1643,-0.319678 -0.52574,-0.464251 -0.80331,-0.321591 -0.27756,0.14266 -1.03963,-0.363966 -1.6931,-1.1256468 -0.6535,-0.7616783 -1.70837,-1.6501613 -2.34473,-1.9747609 -0.48234,-0.2460492 -0.80509,-0.3438288 -0.98024,-0.3193397 z m 10.10505,2.2603668 c -0.26112,0.028405 -0.45299,0.2534006 -0.42616,0.4999786 0.0268,0.246569 0.13754,0.438655 0.24631,0.426823 0.10872,-0.01183 0.30059,-0.236831 0.42617,-0.499978 0.12556,-0.2631545 0.0148,-0.4552345 -0.24632,-0.4268236 z m -2.76902,1.4352696 c -0.22178,0.03426 -0.40838,0.14196 -0.48344,0.29925 -0.12008,0.251658 0.1967,0.412379 0.70441,0.357148 1.0825,-0.117757 1.16505,-0.379303 0.19964,-0.634103 -0.14141,-0.03733 -0.28753,-0.04284 -0.4206,-0.02227 z m 14.60438,1.517174 c 0.26085,-0.09396 0.83214,0.636007 1.34089,1.88196 0.31042,0.760245 0.52312,1.38688 0.47186,1.392457 -0.45409,0.0494 -1.85666,-1.834047 -1.94066,-2.606292 -0.0449,-0.41231 0.009,-0.625396 0.12791,-0.668125 z m -26.66721,5.558178 c -0.0936,-0.0016 -0.13869,0.06719 -0.12342,0.207632 0.0277,0.254797 0.19975,0.583108 0.38202,0.729599 0.18227,0.146501 0.42405,0.150817 0.53759,0.0095 0.11354,-0.141248 -0.0571,-0.469707 -0.38201,-0.729598 -0.17835,-0.143351 -0.32049,-0.215537 -0.41418,-0.217193 z m 25.87556,-0.429787 c 0.0281,0.0071 0.0621,0.04569 0.10161,0.119367 0.15788,0.29469 0.21275,0.799047 0.12192,1.120791 -0.0909,0.321748 -0.22017,0.08067 -0.28723,-0.535777 -0.0503,-0.462325 -0.0207,-0.725756 0.0637,-0.704382 z"
         id="path4138"
         inkscape:connector-curvature="0"
         inkscape:transform-center-x="-5.7302615"
         inkscape:transform-center-y="-12.415567" />
      <path
         style="fill:#000000"
         d="m 132.5573,19.070321 c -2.93207,-0.103612 -8.1365,1.790994 -11.41848,4.694164 -2.07995,1.839878 -6.5046,3.787915 -9.83253,4.326939 -3.32791,0.539027 -9.79468,2.772974 -14.370575,4.965599 -7.645216,3.66335 -8.544276,4.63118 -11.09701,11.942981 -9.06014,25.950892 -11.162266,45.821525 -12.415937,117.443076 -0.942623,53.85175 -0.879188,55.67495 2.141408,62.40639 3.538424,7.88548 4.353724,8.48828 4.353724,3.223 0,-4.81365 -0.103878,-4.74827 8.93672,-5.55865 7.697885,-0.69006 7.753595,-0.66497 10.170515,4.65312 2.526975,5.56021 3.166835,27.97338 0.79889,27.97338 -2.24533,0 -3.44539,-3.49847 -3.10576,-9.05304 0.3961,-6.47843 -2.21427,-7.40177 -4.327699,-1.53052 -0.794803,2.20795 -2.428853,5.78651 -3.630488,7.95362 -1.9278,3.47685 -1.88717,4.83371 0.335643,11.54156 1.548276,4.67232 3.549513,7.86221 5.195154,8.27751 2.88131,0.72714 3.47581,2.5388 4.89496,14.92644 1.084485,9.4664 11.151715,53.7333 17.452735,76.73753 l 4.42699,16.15584 -2.39668,13.77003 c -2.73024,15.6982 -2.80375,17.53782 -1.2456,30.55769 1.15999,9.69302 2.96492,12.63526 6.17603,10.06347 2.75366,-2.20541 3.93227,0.77343 4.76972,12.06843 0.41005,5.53095 1.33288,10.40807 2.05158,10.83672 0.71869,0.42866 1.30707,3.065 1.30707,5.85972 0,6.12937 4.74558,15.59435 9.3929,18.73561 l 0,9.6e-4 c 4.6005,3.10963 11.54024,2.86348 17.45742,-0.61814 4.31739,-2.54033 4.91627,-3.65548 4.91627,-9.15795 0,-3.44614 -0.90227,-7.56286 -2.00432,-9.14655 -3.49957,-5.02902 -9.74788,-24.47767 -10.53926,-32.8044 -0.41968,-4.41592 -0.11279,-11.50529 0.68311,-15.75444 1.34283,-7.16808 1.1955,-7.92509 -2.04451,-10.47634 -3.4281,-2.69943 -3.50129,-2.69625 -3.98263,0.11407 -0.41271,2.40956 -1.5259,2.79546 -7.03876,2.44518 -3.60234,-0.22888 -6.16411,-1.01999 -5.6915,-1.75861 0.47258,-0.73859 -0.27243,-0.92326 -1.65689,-0.41057 -1.9919,0.73763 -2.5172,0.047 -2.5172,-3.30964 0,-4.0105 0.28194,-4.1982 5.15495,-3.43508 3.67124,0.57494 7.58809,-0.26858 13.61425,-2.93101 4.6531,-2.05576 8.44603,-3.93808 8.4309,-4.1832 -0.0146,-0.24515 -1.31648,-8.12403 -2.89302,-17.50849 -2.95382,-17.58282 -2.65896,-28.80141 0.81074,-30.7835 1.09133,-0.62338 1.62615,-2.03748 1.18649,-3.14314 -0.43963,-1.10564 0.56641,-6.27953 2.23595,-11.4959 1.66959,-5.2164 4.55095,-18.9967 6.40533,-30.62383 3.11765,-19.54858 3.66711,-21.31122 7.28221,-23.391 2.15019,-1.23705 6.29184,-4.63289 9.20378,-7.54762 l 5.29446,-5.29862 0.46559,-30.0559 0.46799,-30.05587 -4.92334,-4.90174 c -6.07411,-6.04775 -8.2277,-6.16733 -9.39763,-0.52234 -0.63912,3.08393 -1.78677,4.37942 -3.88099,4.37942 -4.43245,0 -4.98414,-2.13503 -1.61904,-6.26347 1.65261,-2.02752 3.00411,-4.73183 3.00411,-6.01026 0,-1.27842 1.3046,-3.58551 2.90012,-5.12527 1.75728,-1.69583 3.30677,-5.92229 3.92827,-10.72268 1.40675,-10.86544 2.99829,-12.99733 6.47622,-8.67213 3.57185,4.44204 4.90325,2.80772 3.03485,-3.72247 -1.0743,-3.75476 -0.98364,-6.82245 0.30964,-10.60407 1.35764,-3.96984 1.41316,-7.83363 0.22215,-15.2161 -1.25711,-7.79239 -1.15187,-11.17967 0.49401,-15.9392 4.42905,-12.80782 6.83784,-24.322669 6.83784,-32.690361 0,-8.088324 -0.43315,-9.180432 -6.08623,-15.378071 -3.3472,-3.669677 -7.79121,-10.267081 -9.87505,-14.659574 -2.08381,-4.392508 -4.79712,-8.793642 -6.02952,-9.780646 -1.23236,-0.987018 -3.67464,-4.259054 -5.42914,-7.271622 -3.89055,-6.680238 -14.55913,-13.12381 -16.59472,-10.02243 -1.70343,2.595143 -1.69598,3.832227 0.0284,4.860662 1.40324,0.836924 3.0019,12.627559 3.60448,26.575177 0.21198,4.906963 1.29313,8.557181 3.10574,10.490035 1.52917,1.630651 2.33706,3.655995 1.79634,4.500276 -0.59583,0.930372 -0.0567,1.192946 1.36615,0.666034 4.20077,-1.555613 3.06168,10.0774 -1.49852,15.307368 -3.80799,4.36731 -3.8418,4.648537 -3.647,29.239312 0.1081,13.65615 -0.29196,25.5909 -0.88872,26.52271 -0.59674,0.93182 -4.05264,2.96125 -7.67929,4.50943 -5.44477,2.32424 -7.19164,2.50607 -10.01686,1.04694 -1.88185,-0.97189 -3.76047,-1.81901 -4.17647,-1.88406 -0.41591,-0.0651 -0.58617,-0.61128 -0.37814,-1.21345 0.20797,-0.60215 -0.38237,-0.93062 -1.31181,-0.72989 -0.92945,0.20072 -1.93277,-0.94886 -2.22885,-2.55465 -1.07841,-5.84881 -1.11288,-81.988344 -0.0377,-83.667016 0.60862,-0.950359 1.09001,-7.968677 1.06835,-15.597037 -0.0302,-10.651865 0.4327,-13.870371 1.99248,-13.870371 1.84788,0 3.92121,-5.948075 3.92121,-11.247288 0,-0.966606 -0.86303,-1.426369 -2.19577,-1.473484 z m 9.28417,38.997158 c -0.88915,0 -0.29375,0.963007 1.32124,2.1418 3.79451,2.769638 4.5348,2.78695 2.17922,0.0479 -1.03573,-1.204338 -2.61136,-2.189696 -3.50046,-2.189696 z m -0.68781,17.809536 c -0.63166,0.125697 -0.22239,1.591551 1.21488,4.183238 0.86124,1.552997 1.8184,2.823796 2.12724,2.823796 1.05299,0 -1.0265,-5.882521 -2.36123,-6.67858 -0.44241,-0.263839 -0.77034,-0.370356 -0.98089,-0.328454 z m -9.26526,79.996975 c 0.94276,0 1.25282,1.06574 0.70674,2.43832 -1.34854,3.39137 1.66784,4.81172 10.2745,4.83788 6.6208,0.0199 7.28193,-0.27234 6.57077,-2.89678 -0.43494,-1.605 -0.21984,-3.25647 0.47743,-3.67231 1.73463,-1.03459 2.50099,6.34365 1.21489,11.70118 -1.1812,4.92024 -4.61846,30.15395 -4.87138,35.76507 -0.1424,3.15999 0.64853,3.78096 5.8877,4.63032 l 6.05077,0.9808 -6.55422,-0.30109 c -6.3656,-0.29241 -6.53309,-0.18483 -5.93257,3.76354 0.33996,2.23544 0.0543,4.06463 -0.63347,4.06463 -1.94015,0 -1.43192,-13.96125 1.03764,-28.46609 1.23028,-7.22599 2.24061,-15.60158 2.24302,-18.61243 l 0.006,-5.47424 -8.11181,0 -8.11181,0 -1.03527,12.77324 c -0.56921,7.02529 -1.43695,16.22202 -1.92868,20.43718 l -0.89342,7.66394 6.25876,0 c 3.44246,0 6.25877,0.66343 6.25877,1.47575 0,0.87222 -2.47756,1.17687 -6.05079,0.7436 -3.3279,-0.4036 -6.11106,-0.57425 -6.18548,-0.38091 -0.93917,2.43825 -1.81384,34.65759 -0.94072,34.65652 0.65712,-7.9e-4 3.89055,-1.32713 7.1853,-2.94923 3.2948,-1.62209 5.99169,-2.31215 5.99169,-1.53281 0,0.77937 -3.40356,2.92323 -7.56346,4.76489 l -7.56349,3.34842 0,17.89165 c 0,11.32535 0.57165,17.89166 1.55994,17.89166 0.85872,0 3.92192,-0.95335 6.80717,-2.11669 2.88518,-1.16338 5.24715,-1.54632 5.24715,-0.85079 0,0.6955 -2.94622,2.35203 -6.54715,3.67913 l -6.5471,2.41325 0.66887,14.86026 c 0.36828,8.17325 0.93361,15.13411 1.25507,15.46932 0.32146,0.33523 2.96464,-0.096 5.87586,-0.95798 6.89058,-2.04082 6.89068,-0.0644 0,2.34023 -4.28739,1.49616 -5.29442,2.60366 -5.29442,5.82552 0,4.11073 4.52485,37.15409 5.17624,37.79965 0.20178,0.19998 3.54538,-1.18884 7.42874,-3.08611 4.02163,-1.9648 7.04491,-2.74873 7.02458,-1.82247 -0.0197,0.89442 -3.26958,2.99398 -7.22077,4.66682 l -7.18289,3.04274 1.41341,13.74493 c 0.77751,7.5604 1.58488,13.96359 1.79397,14.22848 0.5273,0.6679 8.25211,-4.06405 12.36626,-7.57501 1.87197,-1.59748 3.40357,-2.15828 3.40357,-1.24537 0,0.91293 -4.04721,4.31299 -8.99342,7.55446 -4.94626,3.24149 -10.56214,5.84787 -12.47974,5.79357 l -3.48629,-0.0982 3.56427,-1.65369 c 3.34647,-1.55222 3.50373,-2.19243 2.56686,-10.4832 -2.33829,-20.69313 -1.88023,-19.75114 -9.72851,-20.02659 l -6.99149,-0.24407 6.05076,-0.58391 c 3.32793,-0.32013 6.49827,-1.02988 7.04585,-1.57841 0.54759,-0.5485 -0.27753,-9.5366 -1.83412,-19.97415 -1.55658,-10.43757 -2.85498,-19.47672 -2.88594,-20.08594 -0.031,-0.60917 -3.86743,-0.67428 -8.52544,-0.14601 -6.44517,0.731 -8.79135,0.47104 -9.81126,-1.08344 -0.73712,-1.12347 -1.34932,-9.05029 -1.36141,-17.61569 -0.025,-16.78242 -0.69644,-20.19084 -3.96846,-20.19084 -1.15897,0 -2.105935,-0.65691 -2.105935,-1.4598 0,-1.84921 0.978355,-1.83957 4.637325,0.0501 2.65256,1.36998 2.92612,3.21138 2.92612,19.70731 l 0,18.19732 7.18531,-0.0229 c 3.95188,-0.0119 7.90784,-0.50498 8.79015,-1.09485 1.03331,-0.69082 1.37317,-6.69888 0.95725,-16.88124 -0.64559,-15.80548 -0.64702,-15.8087 -4.25208,-14.93554 -2.03235,0.49224 -3.60446,0.22491 -3.60446,-0.61356 0,-0.81821 1.70178,-1.48718 3.78174,-1.48718 l 3.78173,0 0,-19.06405 c 0,-12.33729 -0.53373,-18.74468 -1.5127,-18.16082 -0.83199,0.49622 -1.51268,0.26106 -1.51268,-0.52234 0,-0.78337 0.65045,-1.64378 1.4465,-1.91139 1.45761,-0.49008 2.2213,-7.23704 3.85501,-34.06124 0.48899,-8.02889 1.22412,-16.56871 1.63323,-18.97739 0.60314,-3.551 1.28638,-14.29942 2.06342,-32.48051 0.0428,-1.00362 0.8304,-1.82477 1.75139,-1.82477 z m 70.72318,13.97756 c -0.29179,1.78846 -0.60358,3.71402 -0.77054,4.63487 -0.47304,2.60941 -0.51421,4.74436 -0.0897,4.74436 0.12461,0 0.3731,-0.0662 0.67125,-0.15739 l 0.1891,-9.22184 z m -44.51811,67.67081 c 0.26717,-0.006 0.26303,9.00057 -0.0355,21.99735 -0.34112,14.85342 -1.05922,28.91426 -1.59544,31.24653 -0.87433,3.80295 -0.64011,4.15617 2.2714,3.42142 1.7856,-0.45063 3.24757,-0.22365 3.24757,0.50406 0,0.72774 -1.59309,1.32295 -3.54064,1.32295 -3.08396,0 -3.7841,1.08342 -5.42442,8.39384 -1.03589,4.61661 -2.26513,9.96594 -2.72994,11.88826 -0.75662,3.12915 -0.42631,3.41837 3.15537,2.75765 2.20028,-0.4059 4.00157,-0.21625 4.00157,0.42196 0,0.63824 -1.872,1.36769 -4.15992,1.62175 -3.89996,0.43303 -4.13033,0.85073 -3.68013,6.66716 0.26419,3.41228 0.20822,6.20415 -0.12515,6.20415 -1.74622,0 -2.62354,-2.52233 -2.62354,-7.54305 0,-3.35599 -0.7205,-5.59514 -1.80108,-5.59514 -1.09284,0 -0.87274,-0.71797 0.56254,-1.82473 1.30151,-1.00362 3.18291,-5.9974 4.1788,-11.09677 0.99591,-5.09938 2.12466,-10.06027 2.50777,-11.02375 0.39003,-0.98082 -1.65407,-2.64266 -4.64443,-3.77495 -2.93752,-1.1123 -5.3417,-2.55621 -5.3417,-3.20929 0,-1.57014 2.05982,-1.51128 3.85737,0.10964 0.79037,0.71264 2.90795,1.7236 4.7059,2.24671 3.09013,0.89908 3.31768,0.36927 4.16935,-9.68941 0.49552,-5.85238 1.06675,-16.55275 1.26924,-23.77874 0.34689,-12.37816 0.19371,-13.1198 -2.65667,-12.80746 -4.14484,0.45413 -11.7716,-1.13727 -10.64793,-2.22163 0.50254,-0.48535 3.90983,-0.70324 7.57292,-0.48585 l 6.66058,0.39461 0.71615,-5.5769 c 0.0491,-0.38353 0.0917,-0.56923 0.13007,-0.57022 z m -91.385643,11.09676 c -0.07445,9.6e-4 -0.156843,0.029 -0.245809,0.0822 -0.144678,0.0863 -0.281088,0.23136 -0.411267,0.406 l 0.333267,4.93821 c 0.218025,-0.58418 0.443674,-1.42206 0.659444,-2.51129 0.343695,-1.73508 0.185812,-2.92829 -0.335635,-2.91504 z m 80.489513,171.26406 c 0.0384,0.0103 0.081,0.0322 0.12298,0.0729 0.67162,0.65125 1.00005,4.7255 0.73271,9.05531 l -0.48452,7.87378 -0.73511,-9.05759 c -0.37898,-4.66971 -0.21192,-8.07361 0.36401,-7.94449 z m -0.47272,19.19175 c 0.70888,0 1.64989,1.80653 2.0894,4.01446 0.89453,4.49366 0.0575,6.47294 -1.16759,2.76221 -0.43558,-1.31925 -1.11098,-3.38263 -1.50088,-4.58697 -0.38987,-1.20432 -0.12979,-2.1897 0.57907,-2.1897 z m -5.0746,30.70141 c 0.78298,0.0256 2.74347,1.01093 4.35846,2.18969 1.61492,1.17882 2.29569,2.12177 1.51268,2.09619 -0.78302,-0.0256 -2.74348,-1.0109 -4.35845,-2.18969 -1.61497,-1.17879 -2.29568,-2.12175 -1.51269,-2.09619 z"
         id="path4215-3"
         inkscape:connector-curvature="0" />
    </g>
  </g>
</svg>
