<?xml version="1.0" encoding="UTF-8" standalone="no"?>
<!-- Created with Inkscape (http://www.inkscape.org/) -->

<svg
   xmlns:osb="http://www.openswatchbook.org/uri/2009/osb"
   xmlns:dc="http://purl.org/dc/elements/1.1/"
   xmlns:cc="http://creativecommons.org/ns#"
   xmlns:rdf="http://www.w3.org/1999/02/22-rdf-syntax-ns#"
   xmlns:svg="http://www.w3.org/2000/svg"
   xmlns="http://www.w3.org/2000/svg"
   xmlns:xlink="http://www.w3.org/1999/xlink"
   xmlns:sodipodi="http://sodipodi.sourceforge.net/DTD/sodipodi-0.dtd"
   xmlns:inkscape="http://www.inkscape.org/namespaces/inkscape"
   id="svg2"
   version="1.1"
   inkscape:version="0.91 r"
   width="168.44751"
   height="570.84039"
   viewBox="0 0 168.44751 570.84039"
   sodipodi:docname="connor.svg">
  <metadata
     id="metadata8">
    <rdf:RDF>
      <cc:Work
         rdf:about="">
        <dc:format>image/svg+xml</dc:format>
        <dc:type
           rdf:resource="http://purl.org/dc/dcmitype/StillImage" />
        <dc:title></dc:title>
      </cc:Work>
    </rdf:RDF>
  </metadata>
  <defs
     id="defs6">
    <linearGradient
       id="linearGradient4157"
       osb:paint="solid">
      <stop
         style="stop-color:#ffffff;stop-opacity:1;"
         offset="0"
         id="stop4159" />
    </linearGradient>
    <linearGradient
       inkscape:collect="always"
       xlink:href="#linearGradient4157"
       id="linearGradient4161"
       x1="68.882126"
       y1="85.092117"
       x2="179.7318"
       y2="85.092117"
       gradientUnits="userSpaceOnUse" />
    <linearGradient
       id="linearGradient4138"
       osb:paint="solid">
      <stop
         style="stop-color:#165016;stop-opacity:1;"
         offset="0"
         id="stop4140" />
    </linearGradient>
  </defs>
  <sodipodi:namedview
     pagecolor="#ffffff"
     bordercolor="#666666"
     borderopacity="1"
     objecttolerance="10"
     gridtolerance="10"
     guidetolerance="10"
     inkscape:pageopacity="0"
     inkscape:pageshadow="2"
     inkscape:window-width="1920"
     inkscape:window-height="1023"
     id="namedview4"
     showgrid="false"
     fit-margin-top="0"
     fit-margin-left="0"
     fit-margin-right="0"
     fit-margin-bottom="0"
     inkscape:zoom="1.5043309"
     inkscape:cx="-74.085546"
     inkscape:cy="294.48577"
     inkscape:window-x="0"
     inkscape:window-y="0"
     inkscape:window-maximized="1"
     inkscape:current-layer="svg2" />
  <g
     id="g4211"
     transform="matrix(1.486384,0,0,1.486384,-116.8866,-35.686511)">
    <path
       inkscape:connector-curvature="0"
       id="path4209"
       d="m 153.74992,375.21803 0.71061,15.76836 3.55307,5.48466 4.26367,4.11348 6.39551,4.1135 9.94857,2.74232 4.26366,-7.54139 -11.36979,-12.34047 -0.7106,-5.48466 -0.71062,-13.02604 -8.52735,-1.37116 z"
       style="fill:#ffffff;fill-rule:evenodd;stroke:#000000;stroke-width:1.04999959px;stroke-linecap:butt;stroke-linejoin:miter;stroke-opacity:1" />
    <path
       sodipodi:nodetypes="ccccccccccsccccccc"
       inkscape:connector-curvature="0"
       id="path4205"
       d="m 124.61482,83.160345 -28.424476,4.79907 -12.791016,37.021395 -3.553062,29.48001 2.842449,17.82511 3.553059,7.5414 4.974285,4.79906 3.553061,3.42791 -8.527346,35.65023 31.266936,8.91257 c 0,0 42.63672,9.59813 45.47917,8.22697 2.84245,-1.37117 19.18652,-5.48464 19.18652,-5.48464 l 0.71061,-42.50606 8.52735,0 -2.13185,-41.13488 -9.23794,-50.04744 -28.42449,-18.510705 z"
       style="fill:#ffffff;fill-rule:evenodd;stroke:#000000;stroke-width:1.04999959px;stroke-linecap:butt;stroke-linejoin:miter;stroke-opacity:1" />
    <g
       transform="matrix(0.40604265,0.05346686,-0.05346686,0.40604265,101.05611,16.346105)"
       id="g4163">
      <path
         style="fill:url(#linearGradient4161);fill-opacity:1;fill-rule:evenodd;stroke:#000000;stroke-width:0.5;stroke-linecap:butt;stroke-linejoin:miter;stroke-miterlimit:4;stroke-dasharray:none;stroke-opacity:1"
         d="m 81.09918,27.92925 7.976968,-8.641716 5.317979,-4.653232 20.607173,-10.6359576 10.63595,2.6589895 14.62445,-1.3294948 18.61292,5.9827259 c 0,0 9.97121,5.317979 11.96545,7.976969 1.99425,2.658989 7.31223,14.624442 7.97697,19.277674 0.66475,4.653231 0.66475,29.913632 0.66475,29.913632 l -0.66475,13.959694 -3.98848,1.994243 -3.98849,8.641715 4.65324,-2.658989 1.99424,9.971207 -13.29495,8.64172 -7.31222,10.63596 -6.64747,-2.65899 -7.31222,31.90787 -38.55535,17.28343 c 0,0 -13.959698,0 -16.618687,-1.3295 -2.65899,-1.32949 -1.329495,-7.97696 -1.329495,-7.97696 L 77.775443,143.59529 71.792716,125.64711 69.133727,86.427019 71.792716,72.467324 Z"
         id="path4155"
         inkscape:connector-curvature="0"
         sodipodi:nodetypes="cccccccsscccccccccccscccccc" />
      <path
         style="fill:#000000"
         d="m 117.82665,3.4991371 -1.93945,0.316406 c 0.006,0.00446 0.008,0.00521 0.0137,0.00977 0.74632,0.590382 4.82293,1.475858 5.89844,1.28125 0.32813,-0.059376 0.74074,0.127289 0.91797,0.414062 0.17724,0.286772 0.89534,0.521484 1.59375,0.521485 0.71722,0 1.13237,-0.220927 0.95507,-0.507813 -0.17266,-0.279364 0.043,-0.507813 0.47852,-0.507813 0.43554,0 0.79102,0.228449 0.79102,0.507813 0,0.735341 2.41517,0.625549 2.66406,-0.121094 0.16495,-0.494872 0.49674,-0.49872 1.55273,-0.017578 1.0771,0.490762 1.75586,0.463842 3.44141,-0.130859 2.22503,-0.785034 3.00781,-0.640562 3.00781,0.552734 0,1.043415 0.88715,0.896256 2.75,-0.447266 l -1.84961,-1.205078 -11.9668,0.664063 -8.30859,-1.330078 z m -2.40234,0.390625 -4.74414,0.773437 -5.65039,4.154297 -4.98438,2.3261719 -3.656246,2.162109 -4.820313,2.492188 -1.99414,3.988281 -1.994141,3.65625 -1.583985,0.816406 c 0.193348,-0.03803 0.390225,-0.05859 0.580079,-0.05859 0.95641,0 1.355468,-0.263189 1.355468,-0.892579 0,-0.491223 0.405451,-0.999477 0.900391,-1.128906 0.58785,-0.153727 1.134022,-1.151807 1.576172,-2.876953 0.58472,-2.281487 0.875809,-2.679459 2.136719,-2.931641 0.80273,-0.160546 1.721185,-0.608761 2.041015,-0.99414 0.31984,-0.385378 0.985036,-0.699219 1.478516,-0.699219 0.54277,0 0.870828,-0.35096 0.828128,-0.888672 -0.05772,-0.727356 0.27346,-0.858838 1.83008,-0.722656 1.624797,0.142151 1.972777,-0.01434 2.374997,-1.072266 0.38239,-1.005751 0.94315,-1.302663 2.99023,-1.574218 1.92903,-0.255894 2.50582,-0.5326259 2.45312,-1.1835939 -0.0496,-0.612653 0.53483,-0.975041 2.08789,-1.291016 1.21842,-0.247887 2.37072,-0.838497 2.64844,-1.357422 0.2881,-0.538316 1.33197,-1.051663 2.52344,-1.242187 1.66022,-0.265486 1.9722,-0.487682 1.70117,-1.210938 -0.0393,-0.104951 -0.0542,-0.167009 -0.0781,-0.24414 z m -7.92578,7.5097649 c -0.23347,-0.01375 -0.40757,0.05356 -0.5,0.203125 -0.16446,0.266102 0.21779,0.760429 0.85156,1.09961 1.13664,0.608315 1.12881,0.624459 -0.58985,1.203125 -0.95828,0.322651 -1.83141,0.857542 -1.9414,1.1875 -0.27348,0.820456 0.6562,0.752564 2.45898,-0.179688 1.35799,-0.702235 1.5365,-0.701269 1.8086,0.0078 0.16612,0.432991 0.19411,1.204068 0.0605,1.714844 -0.20529,0.785023 0.26422,1.029304 3.03516,1.580078 2.77297,0.551179 3.16974,0.759945 2.58203,1.347656 -0.38212,0.382113 -1.39833,0.774928 -2.25781,0.875 -0.85948,0.100072 -1.82303,0.343522 -2.14258,0.541016 -0.69855,0.431727 -0.74468,-0.178548 -0.0918,-1.210938 0.31218,-0.493646 0.2663,-0.87981 -0.13476,-1.134766 -1.0237,-0.650776 -2.38672,-0.445765 -2.38672,0.359375 0,1.123606 -1.06822,0.926655 -1.37695,-0.253906 -0.15103,-0.577541 -0.69302,-1.015625 -1.25586,-1.015625 -0.54451,0 -1.37841,-0.208618 -1.85352,-0.46289 -0.55974,-0.299561 -1.28291,-0.236357 -2.05664,0.177734 -0.99693,0.533541 -1.05891,0.689939 -0.37305,0.953125 0.45182,0.173383 0.82032,0.526913 0.82032,0.785156 0,0.873837 -1.66387,1.116439 -2.496097,0.363281 -0.80576,-0.729209 -2.30505,-0.360293 -2.34765,0.578125 -0.03851,0.847636 -1.528679,2.685547 -2.177739,2.685547 -1.10251,0 -0.366706,1.2541 0.839844,1.431641 0.60668,0.08927 1.103515,0.517351 1.103515,0.951172 0,0.562982 -0.18159,0.643374 -0.634765,0.28125 -0.36169,-0.289011 -1.073654,-0.330906 -1.652344,-0.09766 -0.55873,0.225207 -0.783963,0.425683 -0.501953,0.445313 0.282,0.01963 0.807329,0.508461 1.167969,1.085937 0.61802,0.989604 0.560479,1.040487 -1.019531,0.888672 -1.03159,-0.09912 -1.900933,0.124984 -2.257813,0.582032 -0.48442,0.620377 -0.712975,0.63076 -1.390625,0.06836 -1.06762,-0.886041 -3.954672,-0.345418 -5.138672,0.962891 -0.49474,0.546676 -1.097814,0.872236 -1.339844,0.722656 -0.242029,-0.149581 -0.439453,0.06115 -0.439453,0.466797 0,0.405645 -0.342678,0.868494 -0.761718,1.029297 -0.41905,0.160804 -0.761719,0.07138 -0.761719,-0.199219 0,-0.270599 -0.342669,-0.492188 -0.761719,-0.492188 -0.95022,0 -0.948298,-0.196397 0.01367,-2.05664 0.507419,-0.98124 0.600107,-1.379725 0.310547,-1.492188 L 74.949659,44.54795 c 0,0 -3.232184,19.583453 -5.166016,29.474613 0.505364,0.18665 0.878906,0.44487 0.878906,0.64453 0,0.24908 0.421657,0.45312 0.935547,0.45312 1.05319,0 2.113281,-1.94039 2.113281,-3.86914 0,-2.29191 2.524372,-12.32196 4.113282,-16.339842 1.981488,-5.01061 5.027476,-8.234375 7.779296,-8.234375 0.42321,0 1.844514,1.656251 3.158204,3.681641 6.252249,9.639456 8.207552,11.199756 12.638671,10.083986 3.205,-0.80702 4.68412,-0.69479 5.82422,0.44531 0.55309,0.55308 2.20935,1.63823 3.68164,2.41211 2.4649,1.29563 3.17997,1.41687 9.02344,1.51367 6.43114,0.10658 9.94552,-0.48551 13.43359,-2.26367 2.73333,-1.39342 4.28054,-1.64524 5.09961,-0.82617 0.41518,0.41519 1.95882,0.83883 3.42969,0.93945 l 2.67382,0.18164 0.94922,2.45508 c 0.52118,1.3503 1.34121,3.48505 1.82422,4.74219 0.48302,1.25714 1.10707,2.85628 1.38672,3.55468 0.34746,0.86782 0.31531,2.78283 -0.10156,6.05079 -0.7316,5.73519 -0.37562,6.8294 2.29492,7.04687 2.68253,0.21844 3.51635,1.38885 3.88086,5.46094 0.17408,1.94461 0.30176,4.26499 0.28516,5.15625 -0.0238,1.28098 0.20099,1.65975 1.07422,1.80469 1.22223,0.20287 1.75325,0.03234 2.88281,-0.92188 0.41904,-0.354 2.59126,-1.60281 4.82617,-2.77539 4.10523,-2.15386 6.29658,-4.10916 6.33008,-5.64648 0.0102,-0.46676 0.69543,-1.07368 1.54297,-1.36914 1.02986,-0.35901 1.52343,-0.87099 1.52343,-1.58008 0,-0.57705 0.20829,-1.44654 0.46289,-1.93164 0.73803,-1.40622 1.95912,-5.28919 2.30274,-7.32422 0.23015,-1.36294 0.11297,-1.98241 -0.42774,-2.28516 -0.48809,-0.27329 -0.79813,-1.45814 -0.9082,-3.46289 -0.14139,-2.57515 -0.30939,-3.03705 -1.08594,-2.97266 -0.52482,0.04354 -1.15741,-0.44641 -1.47461,-1.14257 -0.30549,-0.67049 -0.76423,-1.21875 -1.01757,-1.21875 -0.25335,0 -0.30718,-0.48011 -0.1211,-1.06641 0.28848,-0.90892 0.1804,-1.01494 -0.73437,-0.72461 -0.95533,0.30322 -1.05865,0.16211 -0.93946,-1.29101 0.13219,-1.61159 -0.84206,-2.6757 -1.27343,-1.39063 -0.12203,0.36466 -0.12306,0.09406 -0.002,-0.60156 0.26285,-1.50987 1.03579,-2.07512 2.42188,-1.77149 0.81737,0.17906 1.30636,-0.34821 2.4668,-2.656246 1.33742,-2.66004 1.38347,-2.929436 0.58984,-3.509766 -0.5889,-0.43062 -0.74861,-0.975665 -0.50781,-1.734375 0.30277,-0.95395 0.22395,-1.037776 -0.5625,-0.597656 -1.20352,0.67352 -2.18107,-1.104901 -1.84961,-3.363281 0.19389,-1.32105 0.0654,-1.60695 -0.71094,-1.59375 -0.52059,0.0089 -1.36347,0.33249 -1.87305,0.71875 -0.76428,0.5793 -0.86429,1.10997 -0.57617,3.03125 0.39086,2.60646 0.0224,2.85415 -1.9375,1.3125 -1.55243,-1.22115 -1.36093,-2.78153 0.5332,-4.34961 1.09005,-0.90242 1.18362,-1.202013 0.67188,-2.158203 -0.3269,-0.61084 -0.83924,-1.111328 -1.13867,-1.111328 -0.29943,0 -0.41277,-0.342679 -0.25196,-0.761719 0.1608,-0.41905 0.0454,-0.761719 -0.25781,-0.761718 -0.30318,0 -0.43322,-0.456896 -0.28711,-1.015626 0.31031,-1.186639 -0.0519,-1.315001 -0.85156,-0.300781 -0.71001,0.90054 -2.84961,0.184825 -2.84961,-0.953125 0,-0.42805 -0.38205,-0.777344 -0.84766,-0.777344 -1.49134,10e-7 -0.45302,-0.453878 1.54297,-0.673828 2.57737,-0.28402 3.61367,-1.356056 3.11133,-3.220703 l -0.38867,-1.439453 -0.44727,1.625 c -0.54507,1.978454 -1.4185,2.616961 -2.04687,1.494141 -0.55788,-0.996888 -2.44922,-1.117372 -2.44922,-0.15625 0,0.386285 -0.98845,0.901925 -2.30469,1.203125 -2.23301,0.51099 -2.27616,0.498355 -1.44336,-0.421875 0.81282,-0.898155 0.80336,-0.951172 -0.17578,-0.951172 -1.20703,0 -1.95725,-2.00609 -1.00781,-2.695313 0.61343,-0.445304 -0.038,-0.284555 -2.05078,0.50586 -0.76399,0.300019 -0.79629,0.23277 -0.22461,-0.470703 0.56803,-0.698979 0.35833,-1.267557 -1.4375,-3.898438 -2.03126,-2.975801 -5.06836,-5.762714 -5.06836,-4.650391 0,0.298386 -0.20773,0.542969 -0.46094,0.542969 -0.25316,0 -0.35304,-0.41384 -0.2207,-0.919922 0.4709,-1.800731 -6.11782,-2.636633 -8.92774,-1.132812 -1.09623,0.586683 -1.43867,1.544922 -0.55078,1.544922 0.27937,0 0.50977,0.248138 0.50977,0.550781 0,0.302639 -0.28752,0.449023 -0.63672,0.326172 -0.34921,-0.122851 -1.14877,-0.03312 -1.77734,0.199219 -0.69271,0.256045 -1.14258,0.227984 -1.14258,-0.07227 0,-0.272452 0.19126,-0.496094 0.42578,-0.496094 0.56513,0 1.62426,-2.352281 1.23437,-2.742187 -0.54694,-0.546942 -3.47558,-0.321202 -4.37695,0.33789 -0.48407,0.353963 -1.15656,1.189238 -1.49414,1.855469 -0.69926,1.38005 -2.17759,2.455226 -2.68164,1.951172 -0.41183,-0.411837 1.00525,-1.910156 1.80664,-1.910156 0.31576,0 0.45224,-0.197554 0.30274,-0.439453 -0.52656,-0.851977 -2.74678,0.01514 -3.04102,1.1875 -0.21615,0.861189 -0.77294,1.229495 -2.20117,1.458984 -1.12753,0.18117 -2.17375,0.729191 -2.55078,1.335938 -0.35157,0.565781 -1.09402,1.029296 -1.65039,1.029296 -0.76928,0 -1.01172,-0.342252 -1.01172,-1.423828 0,-1.705997 0.82438,-2.640625 2.32617,-2.640625 0.60833,0 1.39051,-0.342673 1.73828,-0.761719 0.34778,-0.419045 0.90402,-0.761718 1.23633,-0.761718 0.97189,0 2.83778,-2.832137 2.25195,-3.417969 -0.33503,-0.335033 0.0193,-0.610105 1.05078,-0.816406 1.8684,-0.373679 2.07462,-1.353516 0.28516,-1.353516 -1.65189,0 -1.63765,-0.812101 0.0215,-1.228515 1.13612,-0.285148 1.20214,-0.41504 0.54493,-1.072266 -0.4108,-0.410788 -1.10593,-0.746094 -1.54493,-0.746094 -0.43901,0 -0.79882,-0.228449 -0.79883,-0.507812 0,-0.895108 -3.1235,-0.543771 -4.89453,0.550781 -1.7961,1.110049 -1.84997,1.988281 -0.12109,1.988281 1.51326,0 2.9827,0.936596 2.68555,1.710938 -0.36479,0.950607 -2.65971,0.421804 -3.29102,-0.757813 -0.28073,-0.524542 -0.84467,-0.953125 -1.25391,-0.953125 -1.03427,0 -0.92891,-0.691002 0.27149,-1.777344 1.61336,-1.460072 1.18095,-1.961126 -0.69336,-0.802734 -2.10641,1.301826 -2.35352,1.308876 -2.35352,0.08203 0,-0.535447 -0.28555,-1.068016 -0.63476,-1.185547 -0.50499,-0.169979 -0.50167,-0.375442 0.0137,-1 0.8776,-1.063581 -0.3174,-1.517489 -2.90625,-1.103515 -1.06917,0.170968 -2.39146,0.05727 -2.97656,-0.25586 -0.32543,-0.174164 -0.61809,-0.267505 -0.85156,-0.28125 z m 25.53125,6.832032 c -0.75791,0 -1.92188,0.97478 -1.92188,1.609375 0,0.583296 2.20157,-0.344917 2.42774,-1.023438 0.10751,-0.322525 -0.11941,-0.585937 -0.50586,-0.585937 z m 14.21679,0.152343 c -0.31494,0.03585 -0.6284,0.299284 -0.78515,0.769532 -0.11165,0.334962 0.26299,0.601562 0.84179,0.601562 0.73045,0 0.95287,-0.234181 0.74219,-0.783203 -0.16634,-0.433467 -0.48389,-0.623745 -0.79883,-0.587891 z m 4.96485,1.884766 c -0.75681,-0.0032 -1.458,0.08977 -1.98243,0.291016 -0.66881,0.256647 -0.64013,0.528116 0.21289,2.046875 0.54099,0.963189 0.98243,2.075992 0.98243,2.472656 0,0.396669 0.39978,0.953533 0.88867,1.238281 1.39808,0.814312 1.97345,0.651129 2.98047,-0.847656 2.25547,-3.3569 2.28587,-3.577734 0.58593,-4.425781 -0.99258,-0.495164 -2.40662,-0.769989 -3.66796,-0.775391 z m -43.94532,0.08008 c 0.19238,0.0255 0.41042,0.13698 0.59375,0.320313 0.76745,0.767444 0.33925,1.197604 -0.60937,0.611328 -0.40287,-0.248984 -0.56351,-0.622036 -0.35742,-0.828125 0.0515,-0.05152 0.11652,-0.08491 0.1914,-0.09961 0.0562,-0.01102 0.11752,-0.0124 0.18164,-0.0039 z m 6.02539,0.748047 c 0.31822,-0.04009 0.59866,0.01662 0.78516,0.203125 0.26854,0.268538 0.89949,0.488281 1.40234,0.488281 0.50286,0 0.90744,0.171337 0.89844,0.38086 -0.0369,0.869904 -1.43397,2.158203 -2.33984,2.158203 -0.53561,0 -1.51585,0.378187 -2.17774,0.841797 -1.12114,0.785275 -1.2461,0.785275 -1.82031,0 -0.33899,-0.46361 -1.06192,-0.841797 -1.60742,-0.841797 -1.10925,0 -3.93011,2.669505 -3.39063,3.208984 0.19016,0.190155 -0.0192,0.345703 -0.46484,0.345703 -0.44565,0 -1.183,-0.374415 -1.64062,-0.832031 -0.72266,-0.722657 -1.09051,-0.745455 -2.79297,-0.183594 -2.003037,0.661062 -3.558597,0.445009 -3.558597,-0.492187 0,-0.288133 0.34267,-0.523438 0.76172,-0.523438 0.41905,0 0.76172,-0.228448 0.76172,-0.507812 0,-0.280372 1.321407,-0.507813 2.951167,-0.507813 2.60289,0 3.12209,-0.176358 4.38086,-1.490234 l 1.42774,-1.490234 1.93554,1.220703 1.93555,1.222656 0.16016,-1.115235 c 0.14007,-0.974164 1.43794,-1.965655 2.39257,-2.085937 z m -29.658196,3.867187 -0.769531,0.396485 c 0.299125,0.01627 0.537115,-0.105113 0.769531,-0.396485 z m 75.712886,1.640626 c -0.7495,0.112238 -1.90992,1.720365 -1.52344,2.345703 0.23822,0.385449 -0.14625,1.048948 -1.00586,1.734375 -1.31074,1.045155 -1.34214,1.159817 -0.52734,1.974609 1.02039,1.020388 3.01114,0.886567 3.05274,-0.205078 0.016,-0.419046 0.22081,-1.186043 0.45507,-1.703125 0.27683,-0.611049 0.20334,-1.077203 -0.20898,-1.332031 -0.47879,-0.295878 -0.49619,-0.649301 -0.0723,-1.441407 0.30896,-0.577298 0.36388,-1.172213 0.1211,-1.322265 -0.0845,-0.05225 -0.18395,-0.06682 -0.29102,-0.05078 z m -4.44336,0.03711 c -1.2387,0.03165 -2.32833,1.191044 -1.38672,1.787109 0.90103,0.570362 0.84796,0.571411 2.02149,-0.05664 1.28404,-0.687174 1.2465,-1.317903 -0.0996,-1.669922 -0.17758,-0.04644 -0.3582,-0.06507 -0.53516,-0.06055 z m -70.001948,4.605469 0,1.61914 c 0,1.685932 -0.281666,1.908727 -1.466797,1.158203 -0.57562,-0.36453 -0.50588,-0.661485 0.38086,-1.613281 l 1.085937,-1.164062 z m 62.759768,5.269531 c 0.43556,0 0.65116,0.228447 0.47851,0.507812 -0.17266,0.27936 -0.53009,0.509766 -0.79297,0.509766 -0.26287,0 -0.47656,-0.230406 -0.47656,-0.509766 0,-0.279365 0.35549,-0.507812 0.79102,-0.507812 z m 0.9121,2.671875 c 0.066,-0.0279 0.24693,0.0988 0.57032,0.367187 0.42544,0.35308 0.77343,0.728515 0.77343,0.833985 0,0.56906 -0.95335,0.06941 -1.22656,-0.642578 -0.13375,-0.34856 -0.18317,-0.530694 -0.11719,-0.558594 z m 12.39258,3.625 c 1.55086,0.10889 2.7781,1.123816 2.58399,2.134766 -0.14544,0.75749 -0.67842,0.989571 -2.46485,1.076171 l -2.27929,0.111329 1.26953,-1.074219 c 0.83197,-0.70307 1.05075,-1.149042 0.63476,-1.294922 -0.94969,-0.33302 -0.76352,-1.024725 0.25586,-0.953125 z m -6.36133,0.792969 c 0.20932,-0.03534 0.39829,0.08696 0.42969,0.390625 0.0209,0.20254 -0.23507,0.458562 -0.57031,0.570312 -0.33525,0.11174 -0.51799,-0.07101 -0.40625,-0.40625 0.10913,-0.3274 0.33756,-0.51935 0.54687,-0.554687 z m 6.26368,3.578125 c 0.1232,0 0.22461,0.228452 0.22461,0.507812 0,0.27937 -0.24322,0.507813 -0.53907,0.507813 -0.29589,0 -0.39726,-0.228443 -0.22461,-0.507813 0.17266,-0.27936 0.41588,-0.507812 0.53907,-0.507812 z m 9.18945,6.410156 c 0.22642,-0.0043 0.46408,0.05684 0.66602,0.18164 0.57413,0.35483 0.44516,0.78367 -0.67774,2.25586 -0.76281,1.00011 -1.48448,1.818358 -1.60352,1.818358 -0.11901,0 -0.59121,-0.57112 -1.04882,-1.26953 -0.45762,-0.69841 -1.14825,-1.269531 -1.53516,-1.269531 -0.38692,0 -0.70312,-0.372525 -0.70312,-0.828125 0,-0.67102 0.3561,-0.771571 1.87304,-0.525391 1.02995,0.16714 2.1233,0.09609 2.42969,-0.158203 0.15863,-0.131675 0.37319,-0.200772 0.59961,-0.205078 z m -5.66406,3.763672 c 0.27936,0 0.16514,0.221376 -0.25391,0.492186 -0.41904,0.27081 -0.99017,0.49219 -1.26953,0.49219 -0.27937,0 -0.16513,-0.22138 0.25391,-0.49219 0.41905,-0.27081 0.99017,-0.492186 1.26953,-0.492186 z m 7.9082,3.539066 c -0.29933,0 -0.54297,0.22845 -0.54297,0.50781 0,0.27937 0.22845,0.50976 0.50781,0.50976 0.27937,0 0.48037,0.17133 0.44727,0.38086 -0.0331,0.20952 -0.0331,0.5522 0,0.76172 0.0873,0.55299 0.96253,0.467 1.33203,-0.13086 0.35328,-0.57161 -0.8993,-2.02929 -1.74414,-2.02929 z m -5.3125,3.75 c 0.0607,-0.0027 0.12743,0.01738 0.19727,0.06054 0.27936,0.17266 0.50781,0.52814 0.50781,0.79102 0,0.26288 -0.22845,0.47851 -0.50781,0.47851 -0.27936,0 -0.50782,-0.35547 -0.50782,-0.79101 0,-0.32666 0.12841,-0.531 0.31055,-0.53906 z m 0.33984,2.53906 c 0.0534,-0.05341 0.12401,0.01615 0.20508,0.21875 0.14672,0.36666 0.12777,0.80583 -0.041,0.97461 -0.16878,0.16878 -0.28763,-0.13058 -0.26563,-0.66602 0.0122,-0.29586 0.0482,-0.47394 0.10156,-0.52734 z m -94.785149,14.70898 c -0.261303,0.0082 -0.449685,0.10187 -0.560547,0.28125 -0.16787,0.27162 0.179747,0.83416 0.773437,1.25 0.59368,0.41583 0.93165,0.99516 0.75,1.28907 -0.18226,0.2949 0.742443,1.20255 2.064453,2.02539 2.13308,1.32766 2.266178,1.51114 1.205078,1.66601 -1.69769,0.24778 -1.846521,1.34547 -0.263671,1.94727 0.925319,0.35177 1.66612,0.34031 2.375,-0.03906 1.757129,-0.9404 3.245518,-0.18511 3.892578,1.9746 0.5616,1.87446 0.960493,2.21719 4.152343,3.56055 1.4134,0.59485 5.080079,0.7892 5.080079,0.26953 -10e-7,-0.93761 -2.798215,-3.78416 -5.177735,-5.26758 -3.5433,-2.20896 -7.230649,-4.68997 -10.087891,-6.78906 -1.978132,-1.45324 -3.419217,-2.19244 -4.203124,-2.16797 z m -5.103516,0.02539 c -0.185113,0.0062 -0.316406,0.20851 -0.316406,0.53516 0,0.89221 0.304814,1.02288 0.740234,0.31836 0.16073,-0.26006 0.05931,-0.61555 -0.224609,-0.79102 -0.07098,-0.04386 -0.137515,-0.06457 -0.199219,-0.0625 z m 2.419922,4.06055 c -0.06072,-0.0027 -0.127423,0.01543 -0.197266,0.05859 -0.27936,0.17265 -0.507812,0.5301 -0.507812,0.79297 0,0.26288 0.228452,0.47852 0.507812,0.47852 0.27937,0 0.507813,-0.35743 0.507813,-0.79297 0,-0.32666 -0.128403,-0.52905 -0.310547,-0.53711 z m 101.644523,8.44141 c -0.55025,0 -0.76171,0.56389 -0.76171,2.03125 0,1.46737 0.21145,2.03125 0.76171,2.03125 0.55026,0 0.76172,-0.56388 0.76172,-2.03125 0,-1.46736 -0.21144,-2.03125 -0.76172,-2.03125 z m -51.77148,1.13476 c -1.52467,-0.0085 -3.44009,0.0054 -5.89062,0.0293 -8.215,0.0802 -10.87633,0.25938 -11.03907,0.74805 -0.11795,0.35419 -0.53754,0.96722 -0.93164,1.36132 -0.98844,0.98844 -0.86804,2.850839 0.27149,4.216799 1.11506,1.33662 2.46613,1.48839 2.91211,0.32617 0.2567,-0.66894 0.78229,-0.75455 2.89257,-0.47461 1.41809,0.18812 2.86782,0.58213 3.22071,0.875 0.62758,0.52084 0.76139,0.33798 1.43554,-1.96093 0.0969,-0.33031 0.93151,-0.67302 1.85547,-0.761719 1.53037,-0.14697 1.80409,0.05207 3.08594,2.249999 0.97434,1.67066 1.75677,2.43125 2.54102,2.47265 1.213,0.0641 1.95172,0.14251 8.24218,0.86524 5.76334,0.66216 6.57187,0.56737 6.76563,-0.79688 0.0969,-0.6823 -0.10767,-1.15231 -0.50781,-1.16601 -0.36864,-0.0126 -1.35527,-0.35887 -2.19336,-0.76953 -0.83809,-0.41068 -1.0981,-0.62557 -0.57813,-0.47852 0.8101,0.22911 0.89533,0.0668 0.59571,-1.12695 -0.19231,-0.7662 -0.3892,-1.624649 -0.4375,-1.908209 -0.12002,-0.70458 -1.46624,-1.75373 -2.2754,-1.77343 -0.36454,-0.0089 -1.64494,-0.46275 -2.8457,-1.00977 -1.48255,-0.67537 -2.54514,-0.89248 -7.11914,-0.91797 z m 43.91406,3.66406 c -0.33508,-0.0109 -0.67296,0.1793 -1.25781,0.5625 -1.36185,0.892329 -2.07435,2.427119 -1.5332,3.302739 0.18597,0.3009 0.6762,0.41654 1.08984,0.25781 0.41363,-0.15872 1.53336,-0.28711 2.48828,-0.28711 1.46664,0 1.73421,-0.17913 1.72071,-1.14453 -0.009,-0.62857 -0.57677,-1.55044 -1.26172,-2.048829 -0.57872,-0.42107 -0.91101,-0.63166 -1.2461,-0.64258 z m -4.23632,7.898439 c -0.45252,0 -1.06817,0.4569 -1.36719,1.01563 -0.29903,0.55872 -0.34161,1.01562 -0.0957,1.01562 0.24589,0 0.8596,-0.4569 1.36524,-1.01562 0.81144,-0.89664 0.82383,-1.01563 0.0977,-1.01563 z m -5.6543,11.17383 c -0.12319,0 -0.36445,0.2304 -0.53711,0.50977 -0.17266,0.27936 -0.0732,0.50781 0.22265,0.50781 0.29586,0 0.53907,-0.22845 0.53907,-0.50781 0,-0.27937 -0.10141,-0.50977 -0.22461,-0.50977 z m -82.115233,3.04883 c -1.04295,0 -1.672167,0.78663 -1.216797,1.52344 0.4661,0.75416 2.136802,0.61415 2.451172,-0.20508 0.34002,-0.8861 -0.06488,-1.31836 -1.234375,-1.31836 z m 35.578123,0.0215 c -0.46122,0.0137 -0.97781,0.75538 -1.40625,2.13672 -0.8467,2.72989 -2.42968,4.44222 -4.11133,4.44922 -0.71956,0.003 -2.40096,0.337 -3.736327,0.74219 -8.364307,2.53794 -6.892545,5.81964 2.681637,5.97851 0.97778,0.0162 1.92116,0.24832 2.09571,0.51563 0.27249,0.41732 1.89061,0.73064 4.41015,0.85351 0.36566,0.0178 0.50797,0.28847 0.31446,0.60157 -0.2388,0.3864 -1.59486,0.46712 -4.22071,0.25195 -11.893273,-0.97457 -11.109136,-0.982 -9.857416,0.10938 0.72697,0.63382 2.294069,1.10422 4.439449,1.33398 1.823577,0.19528 3.446357,0.56482 3.605467,0.82226 0.15911,0.25744 0.10492,0.47447 -0.12109,0.48047 -0.22601,0.006 -0.98323,0.4576 -1.68164,1.00391 l -1.269527,0.99414 2.171867,0.0117 c 1.19428,0.006 3.47876,-0.46695 5.07813,-1.05078 5.47873,-1.99994 6.54039,-2.11269 9.13086,-0.9668 2.02636,0.89636 2.44788,0.94079 3.06836,0.32031 0.48815,-0.48814 0.60911,-1.22513 0.375,-2.29101 -0.28703,-1.30684 -0.69651,-1.66364 -2.43165,-2.13086 -1.147,-0.30886 -2.79949,-1.10609 -3.67187,-1.77149 -0.87238,-0.66539 -2.3066,-1.26493 -3.1875,-1.33203 -0.8809,-0.0671 -1.51822,-0.20639 -1.41602,-0.30859 0.1022,-0.10219 3e-5,-0.83789 -0.22851,-1.63477 -0.3067,-1.06942 -0.22959,-1.51988 0.29883,-1.72265 0.74285,-0.28506 1.03313,-4.98672 0.4082,-6.61524 -0.20584,-0.53641 -0.46155,-0.78943 -0.73828,-0.78125 z m -26.705076,5.09571 c -0.38768,0.035 -0.74597,0.21862 -1.076172,0.54882 -0.44386,0.44386 -0.314037,0.87545 0.533203,1.76954 1.28098,1.3518 1.784585,1.43489 3.015625,0.5 0.82075,-0.62331 0.80154,-0.73898 -0.287109,-1.76172 -0.81147,-0.76233 -1.539414,-1.11506 -2.185547,-1.05664 z m 45.503906,8.2207 c -0.13117,0.003 -0.29082,0.0335 -0.48242,0.0879 -0.55872,0.15852 -1.43195,0.40596 -1.94141,0.54883 -0.7432,0.20842 -0.94165,0.82265 -1.00195,3.11328 -0.081,3.07951 -0.99391,4.9902 -2.63086,5.50977 -0.56617,0.17968 -1.0293,0.62967 -1.0293,1 0,0.37032 -0.34267,0.80598 -0.76172,0.96679 -0.41904,0.1608 -0.76172,0.65175 -0.76172,1.0918 0,0.44006 -0.28555,0.7496 -0.63476,0.6875 -1.04748,-0.18639 -3.86833,1.76281 -4.14454,2.86328 -0.47455,1.89082 -3.2187,2.99193 -7.91796,3.17773 -2.37459,0.0939 -6.763807,0.27231 -9.751954,0.39649 -3.29609,0.13698 -5.555319,0.0282 -5.744141,-0.27735 -0.171178,-0.27697 -0.769018,-0.5039 -1.330078,-0.5039 -1.25523,0 -0.971311,1.31504 0.917969,4.24414 1.12303,1.74114 1.434972,1.92629 2.794922,1.6543 1.06513,-0.21303 1.882523,-0.0293 2.689453,0.60546 1.10185,0.86672 3.562802,1.77107 6.369139,2.33985 0.70397,0.14268 1.78125,0.72539 2.39258,1.29492 0.61133,0.56955 1.46757,1.03516 1.90429,1.03516 0.43671,0 1.05184,0.5657 1.36719,1.25781 0.56755,1.24564 0.63205,1.25718 6.21289,1.08594 6.24257,-0.19155 10.41678,-1.3764 10.06446,-2.85742 -0.0796,-0.33478 0.11998,-0.92676 0.44335,-1.31641 0.46182,-0.55645 0.41097,-0.70899 -0.23632,-0.70899 -1.54065,0 -0.83266,-0.96772 0.95312,-1.30273 1.32697,-0.24894 1.77734,-0.59243 1.77735,-1.34961 0,-0.79593 0.24589,-0.95294 1.14257,-0.73437 1.30551,0.31823 4.15306,-1.81179 3.80469,-2.84571 -0.25716,-0.76323 1.07645,-1.8568 2.29102,-1.8789 0.48888,-0.009 0.88867,-0.2773 0.88867,-0.59571 0,-0.3184 0.39978,-0.87097 0.88867,-1.22851 0.66261,-0.4846 0.86517,-1.27456 0.79297,-3.10352 -0.0563,-1.42517 0.20712,-2.92185 0.62891,-3.57031 1.10827,-1.70389 0.19859,-1.74897 -2.20313,-0.11133 -1.8591,1.26766 -2.3091,1.38596 -3.18945,0.84375 -0.71536,-0.44058 -0.92473,-0.93752 -0.69532,-1.64648 0.18081,-0.55873 0.44288,-1.76004 0.58399,-2.66797 0.23411,-1.50622 0.14098,-1.65039 -1.06836,-1.65039 -0.83951,0 -1.32617,0.27913 -1.32617,0.76172 0,0.87583 -0.68879,0.97176 -1.98633,0.27734 -1.11033,-0.59424 -1.28182,-3.27023 -0.26367,-4.11523 0.39985,-0.33184 0.72656,-1.04845 0.72656,-1.5918 0,-0.55906 -0.13971,-0.7956 -0.5332,-0.78711 z m -32.677735,9.3242 c -1.10237,-0.005 -0.82273,0.78454 0.744141,1.58398 1.16752,0.5957 4.531247,0.90158 4.531247,0.41211 0,-0.37681 -3.191827,-1.69153 -4.718747,-1.94336 -0.214187,-0.0353 -0.399158,-0.0521 -0.556641,-0.0527 z m 1.835938,20.18945 c -0.451322,0.0176 -0.455033,0.84633 0.1875,1.76367 0.60546,0.86442 1.27864,1.09689 3.1543,1.08789 l 2.382807,-0.0117 -2.255857,-1.02343 c -1.24105,-0.563 -2.53458,-1.25459 -2.875,-1.53711 -0.242678,-0.20141 -0.443309,-0.28516 -0.59375,-0.2793 z m 40.964837,2.41992 c -0.27618,-0.003 -0.57126,0.0255 -0.81836,0.0898 -0.49421,0.12878 -0.21309,0.2435 0.625,0.2539 0.83805,0.0104 1.24233,-0.0952 0.89844,-0.23437 -0.17194,-0.0696 -0.42889,-0.10596 -0.70508,-0.10938 z m 12.19336,0.23438 -0.19531,0.17773 0.54102,0.004 a 28.667231,16.203217 0 0 1 -0.34571,-0.18164 z"
         id="use4140"
         inkscape:connector-curvature="0" />
    </g>
    <path
       inkscape:connector-curvature="0"
       id="path4207"
       d="m 123.19359,369.73337 0.71063,9.59813 -8.52735,13.71164 -4.97429,8.22698 c 0,0 9.23796,2.05674 12.08042,2.74232 2.84245,0.68559 10.65918,-6.17023 10.65918,-6.17023 l 4.26366,-8.91255 0,-16.45396 c 0,0 -14.92284,-5.48466 -14.21225,-2.74233 z"
       style="fill:#ffffff;fill-rule:evenodd;stroke:#000000;stroke-width:1.04999959px;stroke-linecap:butt;stroke-linejoin:miter;stroke-opacity:1" />
    <path
       inkscape:connector-curvature="0"
       id="path4200"
       d="m 149.1908,81.108864 1.60975,0.128918 c -0.31331,0.662723 -0.5429,1.207886 -0.54285,1.428167 1.7e-4,0.654881 4.79807,3.759973 10.66073,6.899108 19.18345,10.271667 20.32088,11.584463 21.55947,24.881113 0.43233,4.64107 1.90309,14.6079 3.26963,22.14966 3.19321,17.62299 3.01588,16.04106 3.3406,29.53423 0.15358,6.38149 0.52907,14.55374 0.83515,18.15925 0.41812,4.92515 0.1653,6.86915 -1.01679,7.81565 -1.08812,0.87125 -1.34723,2.2578 -0.83723,4.49801 0.66215,2.9085 0.55619,3.09413 -1.04395,1.8129 -2.74505,-2.19793 -5.44405,0.41443 -4.60587,4.45774 0.35432,1.70919 0.9308,9.8577 1.28197,18.10689 0.7123,16.73307 1.19955,15.63497 -7.51847,16.89628 l -4.96499,0.71911 -0.78086,10.03947 c -0.42906,5.52118 -0.51737,12.49464 -0.19626,15.4963 0.33454,3.12728 0.0688,6.33799 -0.6222,7.52154 -1.89319,3.24261 -1.65722,16.57496 0.31946,18.08674 1.35454,1.03596 1.39951,1.63288 0.26306,3.4284 -1.13634,1.79536 -1.10713,2.17348 0.16704,2.17348 1.27682,0 1.54628,3.68243 1.55964,21.36003 0.009,11.74772 0.50886,25.63243 1.11284,30.85362 0.8999,7.77926 0.81689,9.91719 -0.46559,11.84432 -1.18771,1.78471 -1.3225,3.39771 -0.55538,6.69163 0.96725,4.1533 0.90988,4.30874 -1.35502,3.62178 -4.34117,-1.31671 -6.44415,-0.67581 -11.53138,3.50898 -2.77721,2.28454 -5.41806,3.94222 -5.86905,3.68422 -0.45097,-0.258 -0.82054,-2.55012 -0.82054,-5.09225 0,-2.54213 -0.49064,-4.915 -1.09195,-5.27353 -1.33757,-0.79756 -1.43369,-6.88424 -0.16077,-10.21471 0.51328,-1.34307 0.53025,-5.28962 0.0375,-8.77044 -1.82082,-12.86466 -3.05951,-26.71046 -3.50555,-39.16881 -0.25203,-7.03913 -0.75346,-13.25736 -1.11285,-13.81836 -0.35937,-0.56098 -1.39693,-8.09148 -2.30711,-16.73513 -0.91018,-8.64361 -2.35183,-19.27717 -3.2028,-23.62818 -0.85098,-4.35099 -1.88326,-11.11509 -2.29458,-15.031 -0.41132,-3.91589 -1.12233,-7.11867 -1.57844,-7.11867 -1.27407,0 -3.8753,38.83032 -3.68095,54.93706 0.095,7.88005 1.19481,21.67015 2.44491,30.64412 1.25014,8.97401 2.25768,17.95171 2.23822,19.95204 -0.0694,7.16188 1.68268,18.86413 3.01698,20.15143 1.62072,1.56364 1.82512,9.97952 0.26517,10.90966 -0.60132,0.35854 -1.09406,1.81087 -1.09406,3.22696 0,3.24806 -2.79048,3.39664 -8.74614,0.46532 -2.35734,-1.16027 -5.47882,-2.10901 -6.93594,-2.10901 -2.8717,0 -4.80505,-3.8627 -2.86875,-5.7308 1.54009,-1.48583 1.29573,-2.70726 -0.54285,-2.70726 -4.21689,0 -8.08215,-16.49072 -9.89865,-42.23262 -0.79983,-11.33458 -1.38258,-21.30143 -1.29448,-22.14967 0.0881,-0.84825 -0.19065,-4.86459 -0.6201,-8.92553 -0.42947,-4.06094 -1.04712,-14.57374 -1.37174,-23.36028 -0.32464,-8.78654 -1.06142,-19.93981 -1.63899,-24.78643 -0.57758,-4.84661 -1.05429,-9.33719 -1.05856,-9.97903 -0.004,-0.67214 -3.17373,-1.45181 -7.470438,-1.83708 -8.825543,-0.79137 -14.4043,-2.4801 -14.4043,-4.35904 0,-1.90539 8.55823,-33.14703 9.491517,-34.64862 0.425503,-0.68464 -0.05677,-0.59045 -1.081525,0.2115 -1.646017,1.28815 -2.031476,1.03128 -3.490933,-2.33866 -0.902039,-2.08281 -1.638995,-4.22519 -1.638995,-4.7619 0,-0.53669 -0.68933,-1.23159 -1.530417,-1.54297 -0.880542,-0.326 -1.790151,-2.72268 -2.144255,-5.65023 -1.298509,-10.73535 -2.120771,-14.60737 -3.549397,-16.71094 -1.156034,-1.70218 -1.26195,-4.01006 -0.484383,-10.56924 C 81.84067,125.35704 84.183021,116.02505 91.828297,97.570042 97.1777,84.657047 93.826154,86.195956 124.41179,82.597461 l 2.00645,-0.235677 0.66185,0.797678 4.68731,-0.437113 c 0.32354,0.392549 0.73007,0.730943 1.24019,1.075658 4.64732,3.140456 16.15605,1.429988 16.15605,-2.401092 0,-0.08746 0.016,-0.189614 0.0272,-0.288051 z m -23.49285,2.459508 c -0.0567,-0.01055 -0.0969,-0.0071 -0.11692,0.01209 -0.15956,0.153939 0.43668,2.88932 1.32371,6.079272 1.20696,4.340375 1.48442,9.648554 1.10449,21.094156 -0.57784,17.40719 -2.53496,43.01902 -3.96072,51.83093 -0.64491,3.98589 -0.45576,10.77149 0.57417,20.56841 0.84534,8.04113 1.54715,14.73891 1.55966,14.88395 0.0733,0.85047 18.77842,-0.10572 22.33824,-1.14213 l 4.27599,-1.24485 -0.25473,-8.38973 c -0.13966,-4.61445 -0.54034,-8.83862 -0.89151,-9.38681 -1.32782,-2.07277 -0.23378,-74.02051 1.20678,-79.350841 1.91163,-7.073436 -0.41075,-15.243491 -3.12764,-11.002313 -0.36154,0.564371 -2.53998,1.515597 -4.8397,2.113042 -4.74755,1.233349 -11.27181,-0.453837 -16.18945,-4.185795 -1.36147,-1.033208 -2.60554,-1.805548 -3.00237,-1.879378 z m -6.11542,0.904439 c -1.39078,0.04336 -3.23975,0.321115 -5.79386,0.763432 l -4.21752,0.731206 2.30502,2.008295 c 3.31371,2.890218 2.91865,4.846498 -0.97713,4.846498 -4.36534,0 -4.26143,2.108959 0.40923,8.297058 8.96686,11.8801 10.67893,20.86585 9.92788,52.0908 -0.20583,8.55698 -0.21653,15.55673 -0.0251,15.55673 0.77055,0 1.83054,-7.54018 2.81863,-20.04065 0.57321,-7.25168 1.33218,-15.67555 1.68701,-18.72126 0.53543,-4.59579 0.35315,-5.53741 -1.07317,-5.53741 -0.94523,-2e-5 -1.71833,-0.4754 -1.71833,-1.05552 0,-0.58014 0.71624,-1.05552 1.59096,-1.05552 0.96278,0 1.88366,-1.50998 2.33426,-3.82724 1.1905,-6.12227 -0.17146,-25.775758 -2.09205,-30.188891 -1.27196,-2.922687 -2.11613,-3.962937 -5.17587,-3.867528 z m 28.65619,1.464423 c -0.80872,-0.014 -2.21828,0.169992 -4.13818,0.586173 -2.75585,0.597385 -5.84432,0.582385 -8.09472,-0.04029 -2.63799,-0.729918 -3.31102,-0.688559 -2.44283,0.149062 1.66682,1.608102 10.1404,2.171601 13.29982,0.884294 2.40389,-0.979466 2.72378,-1.555897 1.37591,-1.579242 z m -42.87884,0.555958 -2.97105,0 -0.78087,10.516862 c -0.42906,5.783546 -0.79594,22.395626 -0.81636,36.916776 -0.0204,14.52116 -0.46186,26.40194 -0.979213,26.40194 -0.517351,0 -0.93955,-0.41817 -0.93955,-0.93062 0,-1.36542 -4.39028,-2.55447 -8.472626,-2.29433 -1.954273,0.12454 -3.553577,-0.27136 -3.553577,-0.88028 0,-0.60892 1.599304,-1.55251 3.553577,-2.09692 l 3.553577,-0.99106 -3.553577,-0.0947 c -1.954273,-0.0523 -3.553577,0.37871 -3.553577,0.95883 0,0.58013 -0.983379,1.05552 -2.186011,1.05552 -1.924693,0 -2.188094,0.70431 -2.188094,5.87179 0,4.83138 1.009945,8.77138 2.768528,10.80692 0.156908,0.18163 2.919181,-1.59548 6.138375,-3.9501 7.348598,-5.37499 9.518388,-5.57967 3.526437,-0.33237 -5.835638,5.1104 -9.674892,11.56813 -8.021648,13.49002 4.260878,4.9532 22.920779,-31.50027 22.920779,-44.77673 0,-3.01669 4.64105,-14.61046 5.2009,-12.99247 0.25536,0.73796 -0.56348,4.60806 -1.82063,8.60122 -1.25717,3.99314 -2.28623,8.94923 -2.28623,11.01441 0,4.85073 -2.6384,12.27735 -6.55388,18.44931 -4.18179,6.59178 -8.258885,17.23085 -9.556219,24.93549 -0.850493,5.05096 -6.81133,27.60865 -9.671065,36.59852 -0.691372,2.17343 3.383083,3.35676 17.035014,4.94923 5.11119,0.59621 11.50631,1.38895 14.21222,1.76255 l 4.92114,0.67883 -0.3445,-12.50099 c -0.24426,-8.90577 -1.14838,-15.68859 -3.14434,-23.57782 -2.65703,-10.50216 -2.76483,-12.03067 -2.08163,-29.53424 0.39627,-10.15234 1.22936,-22.49406 1.85195,-27.42521 1.29699,-10.27274 0.39751,-22.27877 -2.01689,-26.89746 -0.90977,-1.74042 -3.34066,-5.39902 -5.40135,-8.13189 -2.0607,-2.732873 -3.84219,-6.294187 -3.95863,-7.912319 -0.19439,-2.701699 0.0866,-2.927727 3.43666,-2.775759 l 3.64753,0.165177 -2.47206,-2.538066 c -1.43534,-1.474047 -3.71788,-2.540082 -5.44311,-2.540082 z m -6.111216,0.682861 c -0.441506,0.08199 -1.002537,0.614246 -1.67657,1.609456 -1.758553,2.596468 -11.082097,25.891001 -12.191149,30.458811 -0.359011,1.47866 -0.934365,6.11307 -1.279876,10.29931 -0.521809,6.32247 -0.33824,7.72 1.089873,8.24872 1.52782,0.56562 1.509134,0.78353 -0.167019,1.96599 -1.69313,1.19443 -1.416035,1.56283 2.701715,3.58956 7.171219,3.52961 5.405238,5.15433 -2.88337,2.65288 -0.801885,-0.24202 -1.256808,0.14327 -1.010533,0.85609 0.246286,0.71281 2.513701,1.87323 5.03806,2.57835 2.52438,0.70513 4.323254,0.86582 3.9983,0.35857 -0.324942,-0.50728 -0.0913,-1.21888 0.519874,-1.58329 2.420528,-1.44327 1.078499,-4.46145 -2.442815,-5.49511 l -3.551493,-1.04343 3.00655,-1.38788 c 3.313064,-1.52997 3.633003,-2.78758 1.735034,-6.80645 -1.668253,-3.53242 -0.549549,-4.43942 2.837436,-2.29836 1.500891,0.94879 2.993743,1.7263 3.315553,1.7263 0.321822,0 0.588685,-5.81534 0.592962,-12.92199 0.0042,-7.10665 0.4828,-16.90234 1.062729,-21.768951 0.891645,-7.482273 0.629245,-11.284565 -0.695261,-11.038576 z m 56.111826,1.540967 c -0.61703,0.0093 -0.55282,0.726962 -0.15033,2.274189 0.34158,1.312949 -0.12912,5.164669 -1.04603,8.560936 -1.14765,4.250965 -1.66318,11.231755 -1.65568,22.401465 0.006,8.92391 0.18205,16.22549 0.39043,16.22549 0.20839,0 0.93808,-2.13833 1.62019,-4.75182 0.68211,-2.6135 3.20486,-8.51119 5.60596,-13.10529 5.3711,-10.27675 6.62833,-17.09839 3.72479,-20.19374 -1.61646,-1.723255 -1.76737,-2.53491 -0.75999,-4.091121 1.34047,-2.070831 0.37815,-3.273725 -4.8919,-6.115534 -1.46667,-0.790886 -2.35754,-1.211764 -2.83744,-1.204575 z m 12.40827,6.627171 c -0.54174,0.04486 -0.98198,0.367281 -1.55129,0.916533 -1.48063,1.428479 -1.49129,1.782529 -0.0772,2.914745 3.11156,2.491411 1.86385,9.393401 -4.2885,23.708761 -5.11241,11.89559 -6.08023,15.29883 -7.30551,25.69088 -1.29595,10.99148 -1.25999,12.06183 0.43012,12.97434 2.35116,1.26942 2.36369,3.66755 0.0272,4.92909 -1.575,0.85036 -1.71979,2.33317 -1.11076,11.27828 0.59082,8.6777 1.04816,10.53427 2.90634,11.78993 2.67813,1.80976 2.84148,4.08801 0.38833,5.41251 -1.60566,0.86693 -1.66966,1.69132 -0.54701,7.08443 0.69877,3.35686 1.26846,8.51666 1.26524,11.46562 -0.003,2.94894 0.57525,10.22675 1.28823,16.17312 0.75896,6.32975 1.783,10.77203 2.46788,10.7183 0.64338,-0.0505 3.62871,-0.97898 6.63528,-2.0647 3.00659,-1.08569 7.00537,-1.99422 8.88603,-2.01835 5.17258,-0.0663 5.90461,-1.69777 5.24476,-11.69526 -0.32131,-4.86819 -0.72409,-14.91427 -0.8957,-22.32291 -0.27049,-11.67791 -0.10065,-13.30082 1.2757,-12.19882 0.87313,0.6991 2.01669,2.23791 2.54094,3.41833 0.63375,1.42695 0.71793,0.74102 0.25473,-2.04657 -0.79711,-4.79741 -1.72872,-5.90583 -6.57057,-7.81563 -6.56016,-2.58754 -9.85091,-15.48811 -8.68349,-34.03225 0.47313,-7.51575 0.33812,-11.44547 -0.39253,-11.44547 -1.44676,0 -1.42787,-10.67676 0.0439,-24.48226 1.36095,-12.76635 1.82537,-14.606199 3.16106,-12.52114 0.50632,0.79039 0.74347,5.2865 0.52615,9.99112 -0.28332,6.13325 -0.145,7.43295 0.48856,4.59672 0.48597,-2.17558 1.81406,-5.62348 2.95227,-7.66255 2.47588,-4.43548 1.78538,-5.94695 -4.76036,-10.416139 -2.51439,-1.71672 -3.6967,-2.415474 -4.59962,-2.34066 z m 12.00325,12.245169 c -0.92056,0 -3.96682,13.98442 -4.8084,22.0711 -0.45553,4.37736 -0.29474,5.42899 0.68692,4.48191 0.7056,-0.68076 1.64239,-1.2368 2.08162,-1.2368 0.43921,0 0.9677,1.06758 1.17339,2.37289 0.22271,1.41338 0.91436,-0.18715 1.70997,-3.95617 1.34281,-6.36126 0.72512,-23.73293 -0.8435,-23.73293 z m -8.00286,5.76101 c -0.12895,-0.18975 -0.36557,2.13343 -0.89988,7.42485 -0.52719,5.2212 -0.80753,10.20462 -0.62218,11.07484 0.62907,2.95364 1.85265,-6.8208 1.71624,-13.71161 -0.0588,-2.97235 -0.0939,-4.64051 -0.19418,-4.78808 z m 10.97391,17.34144 c -0.17595,0.002 -0.45332,0.74986 -0.808,2.20569 -0.49369,2.02653 -0.75035,3.82649 -0.57,4.00048 0.61209,0.59053 1.69299,-3.10014 1.58053,-5.39843 -0.0265,-0.54217 -0.0969,-0.80916 -0.20253,-0.80774 z m -89.121248,1.21666 0.582528,4.18982 c 0.421419,3.03123 0.187427,4.18983 -0.845597,4.18983 -0.864582,0 -0.397356,1.05727 1.183828,2.68107 2.162053,2.22033 2.392668,3.02111 1.336243,4.65313 -1.015803,1.56925 -0.953553,2.09203 0.3111,2.56022 1.153403,0.42701 1.58888,-0.21217 1.58888,-2.3326 0,-1.60617 0.553099,-3.45442 1.229762,-4.10724 1.876814,-1.81073 0.166133,-7.94102 -2.795681,-10.0173 l -2.591063,-1.81693 z m 25.737338,3.53315 c -0.22954,-0.22144 -1.06671,9.45408 -1.86033,21.50105 -1.11044,16.85663 -1.15297,23.47653 -0.18581,28.7305 0.69119,3.75487 2.00029,8.96378 2.90842,11.57438 l 1.65152,4.74579 -0.66812,-8.96582 c -0.36735,-4.93114 -0.83928,-19.81355 -1.04813,-33.07343 -0.20885,-13.25988 -0.56805,-24.29105 -0.79755,-24.51247 z m 57.5629,0.11884 c -0.47883,0.005 -1.26015,0.575 -2.41778,1.6155 -1.55928,1.40152 -2.38017,3.3998 -2.38017,5.79123 0,2.00787 0.12319,3.59444 0.27351,3.5271 0.15033,-0.0673 1.10846,-0.33469 2.12964,-0.59423 1.23973,-0.31507 2.10033,-2.04174 2.59107,-5.19901 0.55704,-3.58382 0.60177,-5.14863 -0.19627,-5.14059 z m 6.43068,0.844 c -0.11855,-0.0408 -0.1991,0.0787 -0.21923,0.41294 -0.0423,0.7017 -1.42381,2.48234 -3.07128,3.95616 l -2.99611,2.67908 4.08809,0 c 3.1944,0 4.07297,-0.40299 4.0129,-1.84513 -0.0764,-1.83371 -1.30068,-5.02651 -1.81437,-5.20305 z m -100.882296,5.71469 c -0.623428,-0.12898 -0.925975,0.37464 -1.41349,1.63564 -0.477702,1.23653 -0.692527,4.64128 -0.476045,7.56585 0.3407,4.60233 0.577567,5.11539 0.870654,1.88946 0.03955,-0.4351 1.081802,-1.31291 2.315456,-1.94989 1.934881,-0.99904 1.999267,-1.24819 0.473949,-1.8129 -2.383133,-0.8823 -2.316161,-4.93916 0.08146,-4.93916 1.608273,0 1.572515,-0.19539 -0.273502,-1.50069 -0.714206,-0.505 -1.204384,-0.81094 -1.578446,-0.88831 z m 102.258206,2.81805 c -0.48769,0.0326 -1.12154,0.14168 -1.94591,0.29812 -8.03492,1.52494 -9.28569,2.25111 -4.04422,2.34671 2.73599,0.0498 5.56503,0.65948 6.28662,1.35565 1.02041,0.98447 1.31118,0.63949 1.31118,-1.55507 0,-1.96383 -0.14462,-2.54321 -1.60767,-2.44541 z m -5.04223,3.95012 c -1.44266,0 -3.49421,0.29803 -5.92334,0.89437 -2.80356,0.68826 -2.4467,0.82394 2.45954,0.93063 3.18392,0.0691 5.74167,-0.34553 5.74167,-0.93063 0,-0.59634 -0.83522,-0.89437 -2.27787,-0.89437 z m -1.93964,3.14236 c -4.89648,0.13394 -4.93963,0.1642 -1.24856,0.82589 2.15172,0.38575 3.70518,1.2476 3.55148,1.97002 -0.15031,0.7066 0.0961,1.24633 0.54703,1.20055 5.88661,-0.59783 3.34216,-4.16583 -2.84995,-3.99646 z m 9.39964,1.97003 c -0.16898,0 -0.29363,0.44041 -0.51153,1.3194 -0.2517,1.01523 -0.2517,2.67705 0,3.69228 0.43581,1.75799 0.49715,1.75799 1.2903,0 0.45805,-1.01523 0.45805,-2.67705 0,-3.69228 -0.39657,-0.87899 -0.60979,-1.3194 -0.77877,-1.3194 z m -16.11638,0 0,4.7478 c 0,2.6106 0.12319,4.68041 0.27352,4.59873 0.15032,-0.0816 1.87282,-0.65453 3.8271,-1.27305 4.46699,-1.41381 4.68278,-3.20651 0.27351,-2.27218 -4.65068,0.98548 -4.44124,-2.25106 0.27352,-4.2281 l 3.55357,-1.49061 -4.1006,-0.0403 -4.10062,-0.0423 z m 12.45215,2.47361 c -0.13069,0.0211 -0.27561,0.0755 -0.42594,0.16517 -0.60132,0.35855 -1.09196,0.86012 -1.09196,1.11595 0,0.25583 0.49064,0.46532 1.09196,0.46532 0.60132,0 1.09406,-0.5036 1.09406,-1.11796 0,-0.46079 -0.27609,-0.69207 -0.66812,-0.62848 z m 3.82082,5.96646 c -0.68257,0 -0.96902,0.92957 -0.64932,2.10902 0.40767,1.50407 0.0342,2.10902 -1.30284,2.10902 -1.03142,0 -2.83108,0.69727 -3.99831,1.54902 -1.99269,1.45411 -1.88001,1.54969 1.84987,1.58125 3.21048,0.0271 4.10021,-0.42055 4.63301,-2.33864 0.98409,-3.54274 0.82766,-5.00967 -0.53241,-5.00967 z m -5.33872,1.19048 c -0.4954,0 -0.99173,0.0732 -1.36756,0.21957 -0.75164,0.29261 -0.13571,0.5318 1.36756,0.5318 1.50329,0 2.11711,-0.23919 1.36548,-0.5318 -0.37582,-0.14631 -0.87007,-0.21957 -1.36548,-0.21957 z m 1.04185,7.39062 c -0.5529,-9.6e-4 -1.13479,0.0213 -1.71832,0.0706 l -4.24467,0.35854 5.14246,0.50762 c 2.82828,0.27982 4.73878,0.12017 4.24466,-0.35653 -0.37059,-0.35754 -1.7654,-0.57646 -3.42413,-0.58014 z m -95.276323,2.04455 c -0.08691,-0.0838 -0.56506,0.34432 -1.509529,1.21464 -1.086751,1.00142 -1.677671,2.10999 -1.311197,2.46354 0.366472,0.35355 1.256957,-0.46597 1.977225,-1.82096 0.625982,-1.17759 0.930465,-1.77333 0.843501,-1.85722 z m 86.112613,0.25784 c -0.1659,0.009 -0.28042,0.0348 -0.3278,0.0806 -0.18949,0.18283 0.0571,1.37721 0.54704,2.6549 0.87712,2.28764 0.91925,2.29087 2.79983,0.28604 1.82988,-1.95075 1.80619,-2.06121 -0.54702,-2.6549 -1.01306,-0.25562 -1.97435,-0.39144 -2.47205,-0.36661 z m 12.42917,2.82813 c -0.63679,0 -0.85395,0.47537 -0.48231,1.0555 0.37164,0.58014 0.89363,1.05351 1.15878,1.05351 0.26517,0 0.4823,-0.47337 0.4823,-1.05351 0,-0.58013 -0.52196,-1.0555 -1.15877,-1.0555 z m -4.53907,0.0786 c -0.14162,0.004 -0.26034,0.0437 -0.34449,0.12488 -0.33661,0.32475 0.27054,0.91524 1.34876,1.31135 1.55817,0.57241 1.68347,0.45151 0.61175,-0.59021 -0.55621,-0.54065 -1.19111,-0.8581 -1.61602,-0.84602 z m -59.33133,0.11884 c -0.19392,-0.18709 -0.11491,9.54108 0.17537,21.61788 0.29029,12.0768 0.65112,22.43284 0.80175,23.01181 0.15062,0.57895 0.59016,-2.90991 0.97713,-7.75118 0.6004,-7.51182 -0.90198,-35.86329 -1.95425,-36.87851 z m -27.975536,1.38386 -2.148436,2.49173 c -1.182618,1.36957 -2.15052,3.38592 -2.15052,4.48191 0,2.41362 2.782437,2.65682 3.710174,0.32429 0.364999,-0.91764 0.646347,-2.93396 0.626357,-4.48189 l -0.03764,-2.81604 z m 91.774946,3.11819 c -0.51594,-0.0742 -0.69024,0.13774 -0.40296,0.58617 0.36737,0.5735 1.13161,1.04343 1.69745,1.04343 1.57264,-1e-5 1.22594,-0.75718 -0.66812,-1.45838 -0.24326,-0.0901 -0.45439,-0.14649 -0.62637,-0.17122 z m -2.4491,12.54127 c -0.0994,0.0146 -0.2178,0.17797 -0.34868,0.49351 -0.31586,0.76142 -0.2756,1.66987 0.0877,2.02037 0.36331,0.3505 0.62164,-0.27191 0.57417,-1.38383 -0.0328,-0.76799 -0.14745,-1.15425 -0.31318,-1.13005 z m -55.71721,183.52637 c 2.51566,0.0375 5.12571,1.3753 7.46626,4.0589 3.52923,4.0465 3.72788,10.21207 0.41966,13.08715 -1.27163,1.10515 -2.7356,3.07816 -3.25292,4.38319 -0.51732,1.30505 -2.55308,3.31952 -4.52234,4.47789 -4.20675,2.4745 -13.57934,2.86365 -16.65922,0.69091 -2.89176,-2.04001 -1.59956,-8.52259 2.53678,-12.72658 1.76081,-1.78962 4.25755,-5.29043 5.54959,-7.77938 2.15002,-4.14178 5.22777,-6.24032 8.46219,-6.19208 z m -0.40087,1.7424 c -2.84689,0.0481 -5.33136,2.17402 -7.33682,6.33913 -0.97766,2.03048 -3.24751,5.29764 -5.04224,7.26168 -2.18874,2.39523 -3.26128,4.69583 -3.26128,6.98776 0,2.98318 0.43296,3.50146 3.41577,4.07701 1.87912,0.36258 4.21544,0.65959 5.19257,0.65868 3.09266,-0.003 9.352,-3.59711 10.62941,-6.10344 0.67636,-1.32703 2.34231,-3.5551 3.70183,-4.95124 3.18653,-3.27244 2.33574,-8.95784 -1.8102,-12.10417 -1.94382,-1.47513 -3.7809,-2.19425 -5.48904,-2.16541 z m 38.80538,1.0656 c 2.95855,0 7.8713,3.97536 7.8713,6.36932 0,1.0988 2.2408,4.4316 4.97962,7.40673 4.26167,4.62937 4.93271,5.96456 4.64761,9.25993 -0.28747,3.32258 -0.78393,3.94314 -3.61413,4.52217 -6.05059,1.23789 -9.35193,0.93314 -13.8343,-1.27305 -2.44994,-1.20585 -4.70666,-3.12241 -5.0151,-4.26033 -0.30843,-1.13793 -1.97429,-2.77402 -3.7018,-3.63587 -2.79723,-1.39556 -3.14018,-2.12227 -3.14018,-6.63121 0,-3.90685 0.56133,-5.55542 2.45953,-7.22342 3.22551,-2.8344 6.73081,-4.53427 9.34745,-4.53427 z m -0.10435,1.51276 c -0.6902,0.0323 -1.4588,0.24469 -2.46996,0.61437 -5.51144,2.01497 -8.14066,5.16239 -8.14066,9.7494 0,3.61685 0.40554,4.27509 3.28006,5.32188 1.82808,0.6657 3.28006,1.96804 3.28006,2.94294 0,0.96207 0.65332,2.27196 1.45109,2.91073 3.01923,2.41749 9.04144,3.94467 13.30815,3.37403 4.0285,-0.5388 4.40108,-0.86646 4.72698,-4.15761 0.29439,-2.97299 -0.37972,-4.30037 -4.01291,-7.91031 -2.40137,-2.38599 -4.52849,-5.47675 -4.72697,-6.86888 -0.19846,-1.39213 -1.61649,-3.43416 -3.1527,-4.5363 -1.46183,-1.04877 -2.3928,-1.49406 -3.54314,-1.44025 z"
       style="fill:#000000" />
  </g>
</svg>
